<svg width="32" height="32" viewBox="0 0 32 32" fill="none" xmlns="http://www.w3.org/2000/svg">
<circle cx="16" cy="16" r="16" fill="#3CC8C8"/>
<path d="M15.2608 5.39614C15.764 5.13374 16.3782 5.74246 16.1109 6.2452C15.9556 6.65501 15.3669 6.76399 15.0661 6.45161C14.7475 6.15181 14.8514 5.55925 15.2608 5.39614ZM9.84834 5.97957C10.154 5.85374 10.541 6.1338 10.5098 6.46696C10.5423 6.82863 10.1 7.09484 9.78843 6.92295C9.37562 6.76306 9.42283 6.09293 9.84834 5.97957ZM20.9336 6.93311C20.4559 6.87539 20.3803 6.12433 20.8402 5.97311C21.1969 5.79914 21.5242 6.12537 21.5764 6.4635C21.5016 6.75221 21.2599 7.01657 20.9336 6.93311ZM11.0799 8.28318C11.5909 7.95995 12.3202 8.44133 12.2415 9.03493C12.215 9.63429 11.4189 9.98154 10.9697 9.57634C10.5354 9.25807 10.6012 8.52791 11.0799 8.28318ZM18.8814 8.62615C19.1094 8.03856 20.0333 8.02079 20.2928 8.59279C20.5493 9.03793 20.2338 9.58916 19.7768 9.7405C19.1714 9.85351 18.5964 9.19908 18.8814 8.62615ZM14.609 9.70714C14.604 9.20208 15.0641 8.82575 15.5441 8.79135C15.8624 8.85519 16.2095 8.99083 16.346 9.3121C16.6006 9.75527 16.3745 10.3655 15.9146 10.5689C15.7043 10.6868 15.4556 10.6425 15.2266 10.6288C14.8765 10.4569 14.5816 10.1198 14.609 9.70714ZM6.55991 10.4431C7.02675 10.1561 7.65659 10.6798 7.47986 11.187C7.38254 11.6256 6.79287 11.8041 6.45578 11.524C6.09596 11.2617 6.15298 10.6308 6.55991 10.4431ZM23.8442 10.4421C24.2403 10.1346 24.8939 10.4874 24.8467 10.9875C24.8733 11.4435 24.3082 11.7874 23.915 11.5526C23.482 11.3579 23.4378 10.6917 23.8442 10.4421ZM16.8725 11.3501C17.5262 11.1153 18.3025 11.3963 18.675 11.979C19.1665 12.6914 18.905 13.7763 18.1424 14.1851C17.3522 14.6685 16.1984 14.2587 15.9065 13.3763C15.5752 12.5863 16.0579 11.5977 16.8725 11.3501ZM13.0376 11.4278C13.762 11.0858 14.7369 11.3727 15.0868 12.1137C15.4986 12.835 15.1802 13.8393 14.444 14.2117C13.7069 14.6303 12.6671 14.313 12.3103 13.5386C11.9103 12.7897 12.2656 11.7726 13.0376 11.4278ZM9.19772 12.7406C9.25279 12.2738 9.69308 11.9701 10.1373 11.9387C10.6159 11.9964 10.9982 12.3681 11.0503 12.8525C11.0189 13.3321 10.6483 13.8008 10.1402 13.7979C9.5811 13.846 9.09094 13.2898 9.19772 12.7406ZM20.5395 12.0402C21.1135 11.7061 21.9105 12.1924 21.885 12.8518C21.9243 13.5505 21.0422 14.0428 20.4707 13.633C19.877 13.2918 19.9233 12.3307 20.5395 12.0402ZM11.477 14.5025C12.1483 14.3178 12.9158 14.6342 13.2451 15.2513C13.6057 15.8723 13.4583 16.7351 12.8982 17.1907C12.1798 17.8588 10.8549 17.5905 10.4725 16.6787C10.0332 15.8428 10.5668 14.7226 11.477 14.5025ZM18.7508 14.4991C19.4033 14.3124 20.17 14.5639 20.5208 15.1585C20.9846 15.8384 20.7632 16.8525 20.0727 17.2909C19.3493 17.7998 18.2289 17.5326 17.8308 16.7368C17.3483 15.9135 17.8338 14.7501 18.7508 14.4991ZM7.15939 15.2748C7.73925 15.0555 8.38202 15.6954 8.1471 16.2703C8.00361 16.794 7.26548 16.9876 6.88418 16.6015C6.43801 16.2389 6.6032 15.432 7.15939 15.2748ZM22.8766 16.1091C22.8599 15.6286 23.2114 15.2031 23.7041 15.1766C24.1012 15.2395 24.4873 15.5598 24.4559 15.9922C24.4923 16.5631 23.8043 16.9512 23.3178 16.683C23.0898 16.5671 22.9729 16.3332 22.8766 16.1091ZM4.30825 15.5568C4.65711 15.4046 5.08862 15.7069 5.00897 16.0943C4.99027 16.533 4.34265 16.7017 4.10473 16.3351C3.89451 16.0806 4.02034 15.6881 4.30825 15.5568ZM26.3046 15.5481C26.5503 15.3732 26.9444 15.4989 27.0417 15.7859C27.2068 16.0993 26.9041 16.5287 26.5513 16.4757C26.0561 16.5209 25.8958 15.7661 26.3046 15.5481ZM13.3718 17.6538C14.2898 17.4151 15.2766 18.1806 15.2824 19.1258C15.3423 20.0809 14.3704 20.9279 13.4307 20.7073C12.7043 20.5904 12.1344 19.8907 12.158 19.1567C12.156 18.4547 12.6858 17.8023 13.3718 17.6538ZM17.0073 17.6518C17.939 17.3914 18.9552 18.1706 18.9404 19.1377C18.9896 20.0752 18.0481 20.8936 17.128 20.7077C16.2622 20.5957 15.6234 19.6445 15.8651 18.8043C15.9871 18.2444 16.4549 17.7891 17.0073 17.6518ZM9.99784 18.2337C10.6426 18.1236 11.247 18.843 10.9855 19.4551C10.7948 20.1075 9.84546 20.2845 9.42572 19.7516C8.93336 19.2398 9.30093 18.3043 9.99784 18.2337ZM20.6593 18.2624C21.2342 18.0216 21.9399 18.5189 21.8957 19.1429C21.9188 19.8297 21.0476 20.3034 20.4854 19.9025C19.8486 19.5425 19.9645 18.4832 20.6593 18.2624ZM23.6393 21.2514C23.4142 20.8318 23.8231 20.2756 24.289 20.3533C24.5209 20.3493 24.6831 20.5321 24.8316 20.6854C24.8621 20.934 24.9132 21.2307 24.7068 21.4224C24.4265 21.7771 23.7916 21.6759 23.6393 21.2514ZM6.55795 20.4701C6.99339 20.1802 7.62 20.6125 7.52211 21.1216C7.47004 21.5718 6.90289 21.8292 6.52932 21.5737C6.1284 21.3418 6.14317 20.6815 6.55795 20.4701ZM15.1606 21.4125C15.7306 21.161 16.4568 21.6573 16.4028 22.2852C16.4451 22.9789 15.5468 23.4594 14.9895 23.0428C14.3704 22.685 14.4736 21.6326 15.1606 21.4125ZM11.1761 22.3421C11.6617 22.0866 12.3132 22.5278 12.269 23.0712C12.2838 23.5174 11.8483 23.8976 11.4081 23.8317C11.0434 23.8239 10.8056 23.4969 10.6886 23.186C10.6946 22.8472 10.8341 22.4699 11.1761 22.3421ZM19.247 22.3499C19.7463 22.0413 20.4559 22.4845 20.4087 23.0656C20.4215 23.673 19.6196 24.062 19.1547 23.663C18.7046 23.3503 18.7595 22.5986 19.247 22.3499ZM20.6506 25.8197C20.4285 25.4837 20.6899 25.0788 21.0506 25.0022C21.3405 25.0611 21.6472 25.2792 21.5862 25.6154C21.544 26.0703 20.8786 26.2099 20.6506 25.8197ZM9.5093 25.5279C9.59772 25.2615 9.81198 24.9968 10.1255 25.0661C10.5825 25.0985 10.7182 25.7874 10.3182 25.9997C9.95848 26.2422 9.54116 25.9101 9.5093 25.5279ZM14.8843 25.8334C14.9718 25.4394 15.4818 25.2478 15.818 25.4571C16.0401 25.5525 16.105 25.801 16.162 26.0123C16.1315 26.1223 16.1043 26.2324 16.0775 26.3424C15.9399 26.5055 15.763 26.6686 15.534 26.6628C15.1084 26.7126 14.7244 26.2315 14.8843 25.8334Z" fill="white"/>
</svg>
