<svg width="24" height="24" viewBox="0 0 24 24" fill="none" xmlns="http://www.w3.org/2000/svg">
<g clip-path="url(#clip0)">
<path d="M12 23.9998C18.6274 23.9998 24 18.6272 24 11.9998C24 5.3724 18.6274 -0.000183105 12 -0.000183105C5.37258 -0.000183105 0 5.3724 0 11.9998C0 18.6272 5.37258 23.9998 12 23.9998Z" fill="#988430"/>
<path d="M12.0023 23.6172C18.4175 23.6172 23.618 18.4167 23.618 12.0016C23.618 5.58647 18.4175 0.385986 12.0023 0.385986C5.58721 0.385986 0.386719 5.58647 0.386719 12.0016C0.386719 18.4167 5.58721 23.6172 12.0023 23.6172Z" fill="#7A6A2A"/>
<path d="M11.9998 23.3705C18.2798 23.3705 23.3707 18.2796 23.3707 11.9996C23.3707 5.71964 18.2798 0.628723 11.9998 0.628723C5.71982 0.628723 0.628906 5.71964 0.628906 11.9996C0.628906 18.2796 5.71982 23.3705 11.9998 23.3705Z" fill="#BA9F33"/>
<path fill-rule="evenodd" clip-rule="evenodd" d="M5.24586 10.7128C5.17789 10.6507 5.10608 10.5885 5.04003 10.5264C4.97398 10.4643 4.90614 10.4021 4.83818 10.3401L4.63619 10.1481C4.60317 10.115 4.56822 10.086 4.5352 10.0528C4.50218 10.0238 4.46339 9.99075 4.43037 9.96156C4.16234 9.70723 3.89277 9.45289 3.62845 9.19843C3.90224 9.44892 4.17027 9.69763 4.44406 9.95183L4.53917 10.0471C4.57219 10.08 4.60714 10.1091 4.64016 10.1422L4.84202 10.3285C4.90998 10.3906 4.97603 10.4528 5.044 10.5205C5.11197 10.5882 5.17802 10.6506 5.24599 10.7125L5.24586 10.7128ZM1.6886 10.6744C1.6886 10.6744 2.66333 10.7753 3.1391 10.8432C3.57981 10.9054 4.9585 11.117 4.9585 11.117L1.6886 10.6744ZM1.6886 10.6744C1.9624 10.6977 2.23619 10.7267 2.50998 10.7559C2.64976 10.7695 2.78377 10.785 2.91779 10.7986L3.12349 10.822C3.19145 10.8316 3.2575 10.8413 3.32547 10.851L4.14109 10.9811L4.54877 11.0491C4.68278 11.0723 4.8168 11.0977 4.95658 11.121C4.82256 11.1074 4.68278 11.088 4.54877 11.0685L4.14109 11.0103L3.32547 10.8899C3.2575 10.8802 3.19145 10.8665 3.12349 10.8569L2.91766 10.8332C2.78365 10.8197 2.64387 10.8002 2.50985 10.7846C2.23606 10.7517 1.96227 10.7166 1.68848 10.674L1.6886 10.6744ZM4.86147 11.371C4.86147 11.371 3.8207 11.6352 3.46921 11.7362C3.12361 11.8313 2.07696 12.1497 2.07696 12.1497L4.86134 11.3711L4.86147 11.371Z" fill="#CFB66C"/>
<path fill-rule="evenodd" clip-rule="evenodd" d="M4.85861 11.3723C4.62757 11.4403 4.39781 11.5063 4.16344 11.5685L3.46827 11.7549C3.23723 11.8229 3.00747 11.8889 2.77707 11.9569L2.43147 12.052C2.31691 12.085 2.20043 12.1141 2.08203 12.1472C2.19646 12.1088 2.31307 12.0695 2.42763 12.0365L2.77323 11.9259C3.00427 11.854 3.23403 11.786 3.46443 11.7142C3.69931 11.656 3.93048 11.5938 4.16536 11.5374C4.38859 11.4811 4.6236 11.4249 4.85861 11.3724V11.3723ZM2.21989 12.7918C2.33432 12.7491 3.65477 12.1337 3.96158 11.9899C4.11518 11.918 4.56165 11.7595 4.56165 11.7595L2.21989 12.7918Z" fill="#CFB66C"/>
<path fill-rule="evenodd" clip-rule="evenodd" d="M2.22083 12.7969C2.3217 12.7585 2.41693 12.7115 2.51395 12.6668L2.80131 12.5328L3.37808 12.2552C3.57008 12.1639 3.7567 12.0632 3.95472 11.9774C4.05571 11.9348 4.1567 11.8999 4.25757 11.8668L4.41117 11.8183C4.46352 11.8048 4.51216 11.7891 4.56477 11.7756C4.37277 11.8668 4.17066 11.9445 3.9784 12.0338C3.7864 12.129 3.59005 12.2067 3.3919 12.2921L2.80554 12.5502C2.60867 12.63 2.41667 12.7154 2.2207 12.7969H2.22083ZM2.34883 13.3345C2.34883 13.3345 3.54486 12.6336 3.95651 12.4083C4.17206 12.288 4.86915 11.9422 4.86915 11.9422L2.34883 13.3345Z" fill="#CFB66C"/>
<path fill-rule="evenodd" clip-rule="evenodd" d="M2.35254 13.3312C2.5544 13.2069 2.76022 13.0807 2.96604 12.9526L3.27324 12.7661C3.37808 12.704 3.47907 12.6458 3.58595 12.5837C3.69078 12.5215 3.79177 12.4594 3.89853 12.4012C3.94935 12.3698 4.00259 12.3425 4.05776 12.3196L4.22083 12.2381C4.43638 12.1333 4.65194 12.0264 4.87914 11.9351C4.67331 12.0653 4.4616 12.176 4.25001 12.2904C4.14518 12.3487 4.0383 12.4012 3.93347 12.4594C3.82864 12.5176 3.72765 12.5799 3.62077 12.6362C3.51593 12.6983 3.41494 12.7565 3.30819 12.8128L2.99164 12.9856L2.35279 13.3312H2.35254ZM4.86314 12.0923C4.86314 12.0923 4.11945 12.6632 3.87869 12.8457C3.63792 13.0282 2.92918 13.5409 2.92918 13.5409L4.86314 12.0923Z" fill="#CFB66C"/>
<path fill-rule="evenodd" clip-rule="evenodd" d="M9.12761 16.7021L8.74707 15.9817L8.96838 15.0807L10.547 14.4711L9.87514 13.0925L10.2072 11.7003L10.8305 10.4536L12.7568 10.1507L14.1722 8.80121L17.2286 9.03225L17.8286 12.3002L16.6732 16.4148L16.015 18.5449L13.347 18.6459L12.1082 17.7877L10.6577 17.1817L9.12761 16.7021Z" fill="#E2CC85"/>
<path fill-rule="evenodd" clip-rule="evenodd" d="M13.8119 16.6774C13.8119 16.6774 13.4429 16.8463 12.8135 16.8074C12.6314 16.5628 11.3558 16.4483 11.3558 16.4483C11.3558 16.4483 11.1965 16.3998 10.9149 16.5162C10.6315 16.6314 10.3635 16.6172 10.113 16.6793C9.86251 16.7414 9.61381 16.4152 9.42181 16.3473C9.22981 16.2755 8.97522 16.1027 8.97522 16.1027L8.43762 16.0502L7.35806 15.5939L5.64299 13.8852L5.17695 14.6148L5.0332 15.5177L5.55173 16.5877L6.94783 17.8595L9.67013 18.5507L11.2837 18.0753L13.3051 17.2209L13.8119 16.6773V16.6774Z" fill="#F1D789"/>
<path fill-rule="evenodd" clip-rule="evenodd" d="M4.13719 10.6359L4.48279 9.58942L4.89456 8.91358L6.22064 8.80286L5.82256 9.96407L4.71395 11.9369L5.17411 13.6981L4.35863 14.1058L4.108 13.7214L3.90615 12.8398L3.89258 11.8495L4.13719 10.6359Z" fill="#F4ECB4"/>
<path fill-rule="evenodd" clip-rule="evenodd" d="M5.62512 16.6045L5.37078 16.2492C5.37078 16.2492 5.30282 16.0802 5.34173 15.9326C5.38013 15.7831 5.37462 15.7734 5.3553 15.7171C5.33597 15.6607 5.17277 15.4666 5.1825 15.2995C5.1921 15.1306 5.16893 15.0742 5.29309 14.9404C5.42314 14.8103 5.38435 14.585 5.38435 14.585L5.55331 14.6899L5.59171 14.6316C5.59171 14.6316 5.65379 14.6801 5.65379 14.7559C5.66736 14.6511 5.61104 14.1656 5.73917 14.055C5.86729 13.9444 6.09449 14.5734 6.09449 14.5734L5.95472 13.6607L5.59542 12.7249L4.95658 11.8705L4.91818 10.9287V10.8472C4.91818 10.8472 4.62493 11.2977 4.5434 11.6536C4.48516 11.8982 4.62493 12.1953 4.59588 12.5468C4.57245 12.8963 4.5434 12.8691 4.62877 13.0076C4.71415 13.146 4.92202 13.4308 4.84048 13.6367C4.76868 13.8134 4.52394 13.6892 4.52394 13.6892C4.52394 13.6892 4.47543 13.8328 4.40938 13.8852C4.38608 13.7999 4.36087 13.7455 4.31428 13.6932C4.31031 13.7263 4.30071 13.7709 4.30071 13.7709C4.30071 13.7709 4.25796 13.6369 4.21521 13.468C4.15709 13.2428 4.09489 12.9457 4.03857 12.7865C4.01527 12.8778 3.95703 13.1554 3.95703 13.1554L3.99006 13.5827L4.14929 14.169L4.30289 14.553L4.45239 15.0229L4.58231 15.3386L4.68714 15.5793L4.7784 16.1212L5.2191 16.5871L5.45411 16.692L5.62486 16.6046L5.62512 16.6045Z" fill="#F3E19D"/>
<path fill-rule="evenodd" clip-rule="evenodd" d="M4.37511 9.78266C4.37511 9.78266 4.05857 10.3203 3.96743 10.8622C3.87629 11.4042 3.79463 11.9768 3.85223 12.7146C3.91047 13.4584 4.02119 13.9146 4.11053 14.2409C4.26414 14.7827 4.66196 15.5361 4.66196 15.5361L4.67553 15.5069C4.60866 15.3802 4.55529 15.2468 4.5163 15.1089C4.46382 14.903 4.44436 14.6584 4.39585 14.5477C4.3531 14.4371 4.28129 14.3419 4.24634 14.206C4.21332 14.0759 4.20794 13.8701 4.10657 13.7167C4.06381 13.6545 4.01134 13.4915 3.99585 13.3284C3.97639 13.0836 4.00558 12.8099 3.98228 12.5847C3.93953 12.2099 3.91047 11.9556 3.94925 11.7594C3.98804 11.5631 4.19015 11.0061 4.31444 10.5633C4.39598 10.2798 4.34734 10.041 4.49684 9.7943C4.64634 9.5497 4.73774 9.33414 4.77063 9.18464C4.80903 9.0487 4.3746 9.78266 4.3746 9.78266H4.37511Z" fill="#F2E8B0"/>
<path fill-rule="evenodd" clip-rule="evenodd" d="M5.87045 9.57043C5.87045 9.57043 5.70738 9.61907 5.62968 9.70445C5.55199 9.78599 5.51896 9.85395 5.41413 9.99181C5.3093 10.1297 5.30341 10.2423 5.21791 10.4151C5.13253 10.5841 4.94412 10.8384 4.92082 10.9297C4.89752 11.0209 4.85874 11.4481 4.81023 11.65C4.76748 11.852 4.85874 12.1006 4.85874 12.1006L4.96933 12.0772C4.96933 12.0772 4.96933 12.2209 5.08005 12.3181C5.19064 12.4132 5.2101 11.9956 5.2101 11.9956L5.62367 10.5996L6.2469 10.1763L6.31487 9.8345L5.8702 9.57043H5.87045Z" fill="#F5EEC0"/>
<path fill-rule="evenodd" clip-rule="evenodd" d="M6.16972 10.1998C6.16972 10.1998 5.87648 10.2192 5.73286 10.3241C5.67462 10.3667 5.65132 10.4017 5.58924 10.4542C5.47468 10.5493 5.35808 10.6367 5.30188 10.7614C5.23968 10.8855 5.17171 11.0739 5.12512 11.4293C5.10566 11.5788 5.10566 11.7166 5.09209 11.8371C5.07264 12.0001 5.04358 12.1302 5.05907 12.2211C5.07852 12.4074 5.27078 12.5046 5.28947 12.7162L5.68755 12.5143L6.06233 11.0366L6.85849 10.5374L6.40793 10.0325L6.16921 10.1989L6.16972 10.1998Z" fill="#E6DB9D"/>
<path fill-rule="evenodd" clip-rule="evenodd" d="M4.06946 20.1502C4.07113 20.1356 4.07279 20.121 4.07446 20.106C4.13257 19.6068 4.14242 19.2284 4.18505 18.9915C4.24713 18.6556 4.28988 18.5307 4.28015 18.405C4.26658 18.2032 4.2511 18.0556 4.27055 17.9002C4.29961 17.6944 4.50159 17.4497 4.49583 17.2808C4.49186 17.1468 4.4239 17.0595 4.36566 16.9779C4.30742 16.8964 4.26082 16.8284 4.26082 16.8284C4.26082 16.8284 4.6589 16.5546 4.65506 15.4517C4.66319 15.454 4.67101 15.4572 4.67836 15.4614L4.87445 16.0186L5.00847 16.1816L5.52303 17.1409L6.18517 17.7837L7.16373 18.4419L7.77736 19.1097L7.83944 20.8903L7.03752 21.931L6.9062 22.1689C5.86283 21.6451 4.90607 20.9642 4.06934 20.15L4.06946 20.1502Z" fill="#E5CB7A"/>
<path fill-rule="evenodd" clip-rule="evenodd" d="M6.52441 21.8503C6.52441 21.8503 6.53798 21.629 6.72051 21.4852C6.74969 21.5337 6.76902 21.5804 6.76326 21.6153C6.79629 21.5571 7.02733 21.1843 7.54969 21.0871C8.07206 20.992 8.19827 20.6115 8.19827 20.6115L9.30688 19.6037L10.5748 18.4368L12.1166 17.8949L12.8371 17.7182C12.8371 17.7182 12.8507 17.7706 12.8236 17.8871C12.9574 17.8775 13.2545 17.8096 13.5633 17.7008C13.6876 17.6522 13.8042 17.6328 13.8662 17.6969C13.9575 17.7823 13.9711 17.9843 13.9768 18.1046C14.1263 18.0716 14.2991 17.928 14.4376 17.9415C14.6591 17.9648 14.8552 18.225 15.0804 18.225C15.3775 18.225 15.5114 18.0425 15.7193 17.8988C15.8436 17.8134 16.0221 17.7068 16.1231 17.6347C16.3639 17.4579 18.9115 16.6793 18.9115 16.6793L19.8047 16.7376L19.9484 17.6968L19.8716 20.2043C19.8621 20.2134 19.8527 20.2229 19.8431 20.232L15.7819 22.3531L10.1524 23.216C8.89143 23.01 7.67453 22.5914 6.5536 21.9781L6.5248 21.8501L6.52441 21.8503Z" fill="#D8C173"/>
<path fill-rule="evenodd" clip-rule="evenodd" d="M4.4082 20.4665C4.4882 20.2992 4.56014 20.1593 4.57281 20.1093C4.5828 20.2101 4.6011 20.4314 4.63796 20.6667C4.56057 20.6009 4.48398 20.5341 4.4082 20.4664V20.4665Z" fill="#F1D789"/>
<path fill-rule="evenodd" clip-rule="evenodd" d="M8.52336 22.8347L9.25142 22.6322L9.3135 22.6517C9.3135 22.6517 9.34652 22.6712 9.34652 22.7371C9.43779 22.6847 9.51549 22.6943 9.57181 22.6595C9.60086 22.7216 9.62992 22.9274 9.75817 22.9526C9.89206 22.9818 10.0358 22.8944 10.1815 22.7838C10.3251 22.6692 10.4887 22.5255 10.6124 22.4672C10.6579 22.5508 10.6981 22.637 10.7329 22.7254C10.896 22.5954 11.1795 22.0672 11.5833 22.0768C11.7 21.801 11.8951 21.5654 12.1442 21.3992C12.519 21.1449 12.7539 21.1254 13.0471 21.1487C13.1636 20.9974 13.3071 20.869 13.4704 20.7701C13.5189 20.7896 13.653 20.8711 13.82 20.7934C13.989 20.7158 14.1792 20.4148 14.4297 20.376C14.5646 20.3574 14.7019 20.3862 14.818 20.4575C14.818 20.4575 15.5476 19.7332 16.051 19.4924C16.0316 19.4342 15.9928 19.2148 16.583 18.7293C16.616 18.7584 16.5927 18.84 16.616 18.8445C16.6256 18.8445 16.7696 18.7824 16.9519 18.6425C17.1772 18.4736 17.447 18.2969 17.6101 18.2484C17.9173 18.1571 18.2432 18.3435 18.2432 18.3435C18.2709 18.324 18.3018 18.3096 18.3344 18.3007C18.412 18.2871 18.4683 18.2774 18.5111 18.2623C18.5072 18.3633 18.5635 18.5361 18.5111 18.6856C18.5719 18.7198 18.6363 18.7471 18.7031 18.7672C18.6702 18.839 18.5982 19.0215 18.4779 19.1089C18.5788 19.1574 18.5923 19.2137 18.7361 19.2625C18.6779 19.344 18.5825 19.484 18.54 19.5697C18.4972 19.661 18.3438 20.0396 18.2758 20.1832C18.204 20.327 18.107 20.591 18.0603 20.644C18.0135 20.697 17.8447 20.9216 17.7147 21.0322C17.8299 20.9895 18.3011 20.8459 18.5011 20.7915C18.4416 20.8788 18.1399 21.3264 17.8498 21.7568C16.4611 22.5892 14.9109 23.1161 13.3025 23.3023C11.6942 23.4884 10.0646 23.3297 8.52246 22.8367L8.52336 22.8347Z" fill="#E0CD81"/>
<path fill-rule="evenodd" clip-rule="evenodd" d="M6.22208 10.1439C6.22208 10.1439 6.05325 10.1439 6.02022 10.1672C5.9872 10.1905 6.18918 10.2391 6.25126 10.2624C6.31334 10.2857 6.44736 10.3924 6.4823 10.478C6.51533 10.5595 7.69587 11.0351 7.69587 11.0351L8.53081 10.9924L8.81869 10.5947L8.2711 10.1151L8.6551 8.98303L8.14643 9.06457L6.92314 9.79417L6.3095 10.0292L6.22208 10.1439Z" fill="#DFC57C"/>
<path fill-rule="evenodd" clip-rule="evenodd" d="M8.05432 10.522C8.06639 10.5415 8.08339 10.5576 8.10361 10.5685C8.12383 10.5794 8.14656 10.5847 8.16952 10.5841C8.34232 10.5841 8.50142 10.6268 8.56747 10.7141C8.67819 10.854 8.98501 11.3006 8.98501 11.3006L9.71896 11.5647L9.76632 10.7004L8.9644 10.1432L8.05176 10.4791V10.5219H8.05381L8.05432 10.522Z" fill="#E5CC7C"/>
<path fill-rule="evenodd" clip-rule="evenodd" d="M7.90572 10.8397C7.90572 10.8397 8.03961 10.8494 8.20857 10.7872C8.37753 10.725 8.65517 10.5911 8.77561 10.6436C8.94445 10.7154 8.9095 10.9407 9.09216 11.1428C9.20275 11.2671 9.40474 11.2632 9.5193 11.3973C9.63386 11.5313 10.028 11.4691 10.028 11.4691L10.1775 12.2755L9.57754 13.0445L9.38131 13.9997H8.57005L7.82892 13.7057L7.46387 12.8225L7.6464 11.9293L7.90572 10.8397Z" fill="#D2C281"/>
<path fill-rule="evenodd" clip-rule="evenodd" d="M9.48023 10.8801C9.50035 10.8863 9.52126 10.8896 9.54231 10.8899C9.51902 10.9093 9.47038 10.952 9.48983 11.0627C9.50929 11.1734 9.57137 11.3132 9.51902 11.3985C9.56081 11.4442 9.59198 11.4986 9.61028 11.5578C9.64331 11.653 9.65303 11.7403 9.86846 11.754C9.83737 11.7731 9.8087 11.796 9.78308 11.822C9.78308 11.822 9.93259 11.952 10.0084 12.0723C10.0859 12.069 10.2918 12.005 10.2918 12.005L10.3345 12.0342L10.4258 11.9958C10.4258 11.9958 10.3404 11.9628 10.4025 11.755C10.4607 11.5725 10.5132 11.5822 10.5177 11.5687C10.5222 11.5551 10.5604 11.3628 10.5604 11.2851C10.5895 11.1843 10.6128 10.8775 10.6128 10.8775L10.5507 10.1998L10.2013 9.98811L9.9171 9.71381L9.64906 10.2186L9.47255 10.3946L9.45898 10.8315L9.48023 10.8801Z" fill="#E2C270"/>
<path fill-rule="evenodd" clip-rule="evenodd" d="M10.3145 10.3135C10.3145 10.3135 10.3765 10.4901 10.4 10.6261C10.4082 10.5997 10.4128 10.5722 10.4135 10.5445C10.4135 10.5445 10.462 10.8126 10.4716 10.9233C10.4911 10.9193 10.51 10.9136 10.5144 10.9329C10.5187 10.9522 10.563 11.1679 10.5528 11.2882C10.6336 11.1548 10.7455 11.0429 10.8789 10.9621C10.9566 10.9134 11.0479 10.8611 11.1431 10.8571C11.2926 10.8533 11.4013 10.9524 11.58 10.9524C12.011 10.9524 12.4014 10.6358 12.6887 10.5388C12.9003 10.4669 13.0828 10.4145 13.211 10.2979C13.2732 10.2455 13.3839 10.1291 13.4848 9.95613C13.6188 9.72573 13.7585 9.52516 13.8984 9.49994C13.8351 9.51157 13.7708 9.51612 13.7064 9.51351C13.7064 9.51351 13.7492 9.47076 13.8216 9.41252C13.8941 9.35428 13.9809 9.28247 14.105 9.28247C14.3265 9.28247 14.4371 9.31536 14.5614 9.31536C14.6856 9.31152 14.7575 9.28247 14.7575 9.28247C14.7575 9.28247 14.8876 9.37373 15.1807 9.37373C15.474 9.37757 15.6701 9.40279 15.8236 9.41648C15.977 9.43018 16.4915 9.37373 16.6391 9.37808C16.7353 9.38179 16.8298 9.40491 16.9168 9.44605L16.441 8.06365L14.732 6.56989L13.7145 7.29027L12.1493 8.85533L10.6348 9.41648L10.3183 9.77181V10.3135H10.3145Z" fill="#CCB360"/>
<path fill-rule="evenodd" clip-rule="evenodd" d="M13.7151 9.52316C13.7151 9.52316 13.7578 9.48054 13.8295 9.4223C13.9012 9.36406 13.9889 9.29212 14.113 9.29212C14.3344 9.29212 14.4451 9.32515 14.5694 9.32515C14.6936 9.32131 14.7655 9.29212 14.7655 9.29212C14.7655 9.29212 14.8958 9.38326 15.1887 9.38326C15.482 9.3871 15.6781 9.41231 15.8316 9.42588C15.985 9.43945 16.4995 9.38326 16.647 9.38748C16.7432 9.3911 16.8377 9.41423 16.9247 9.45545L16.7091 8.83209L16.4588 8.35644L15.7441 7.57385C15.7441 7.57385 14.8865 7.06902 14.88 7.06518C14.8762 7.06134 14.5829 6.98364 14.5829 6.98364L13.8062 7.45353L13.1015 9.27689L13.0879 9.66089L13.5441 9.87644C13.6586 9.68444 13.785 9.53084 13.9034 9.51139C13.7965 9.52303 13.715 9.52303 13.715 9.52303L13.7151 9.52316Z" fill="#D5B457"/>
<path fill-rule="evenodd" clip-rule="evenodd" d="M13.7143 9.65277C13.6464 9.65661 13.5902 9.64304 13.5746 9.59453C13.5163 9.43145 13.4697 9.40816 13.421 9.40816C13.3722 9.40816 13.3064 9.51299 13.2674 9.52259C13.2283 9.53219 13.182 9.40227 13.182 9.40227L13.1392 9.38281C13.1392 9.38281 12.8887 9.54589 12.7121 9.73814C12.5355 9.9304 12.246 10.2567 12.116 10.3148C11.9859 10.3729 11.5392 10.3925 11.3864 10.4255C11.2336 10.4585 11.0641 10.5693 11.0408 10.5945C11.0175 10.6197 11.1089 10.6468 11.1225 10.672C11.136 10.6953 10.9728 10.6856 10.9593 10.7104C10.9497 10.7299 10.9977 10.8405 11.0215 10.8968C11.0631 10.8761 11.1088 10.8648 11.1554 10.8638C11.3049 10.8599 11.4137 10.959 11.5922 10.959C12.0233 10.959 12.4136 10.6425 12.701 10.5453C12.9127 10.4735 13.0952 10.421 13.2233 10.3045C13.2854 10.2522 13.3961 10.1356 13.4971 9.96278C13.5708 9.84438 13.6428 9.73366 13.7147 9.65213L13.7143 9.65277Z" fill="#D2B257"/>
<path fill-rule="evenodd" clip-rule="evenodd" d="M7.52458 19.2665C7.52458 19.2665 7.48618 19.1228 7.13034 18.752C7.02934 18.6471 6.96726 18.56 6.8993 18.4976C6.73033 18.3383 6.63126 18.2956 6.51094 18.2044C6.24688 18.0083 5.95952 18.0083 5.73821 17.7675C5.51689 17.5267 5.25897 17.0667 5.07977 16.5966C4.90313 16.1267 4.85449 15.9772 4.85449 15.9636C4.85449 15.95 4.90313 15.8588 4.96521 15.8723C5.02729 15.8859 5.02729 16.0062 5.04291 16.0354C5.07384 16.083 5.10892 16.1279 5.14774 16.1693C5.239 16.2743 5.36905 16.3997 5.4351 16.5868C5.42153 16.4276 5.36713 16.251 5.36713 16.251C5.36713 16.251 5.70889 16.4665 6.00009 16.6917C6.29334 16.917 6.41366 16.9946 6.49929 17.1383C6.58493 17.2819 6.78665 17.6606 6.8833 17.7714C6.97994 17.8821 8.3041 18.2995 8.3041 18.2995L8.93399 18.7691L9.24669 19.4546L9.00195 19.8386L8.53206 19.9395L7.76893 19.5978L7.52458 19.2664V19.2665Z" fill="#D2B159"/>
<path fill-rule="evenodd" clip-rule="evenodd" d="M5.83008 16.901C5.83008 16.901 5.98931 17.1554 6.37766 17.3961C6.72723 17.6078 7.28058 17.8001 7.77389 17.9147C8.05728 17.9826 8.3408 18.035 8.59514 18.0389C9.28058 18.0485 9.75239 17.8526 10.337 17.7884C10.6535 17.7554 11.0419 17.7302 11.4457 17.6348C11.9641 17.5106 12.2709 17.3707 12.6885 17.174C12.9913 17.0343 13.2691 16.9294 13.4942 16.7954C13.8108 16.6091 14.0418 16.4013 14.3098 16.3392C14.2768 16.4305 14.2419 16.5936 13.9778 16.7625C14.1176 16.7586 14.3098 16.749 14.3098 16.749C14.3098 16.749 14.1235 16.8596 13.7953 17.1081C13.5933 17.2617 13.3254 17.5217 13.0516 17.6945C12.8748 17.8052 12.6826 17.8865 12.5564 17.9528C12.2492 18.1218 12.1253 18.2071 11.9234 18.4136C11.9952 18.4098 12.0011 18.4136 12.0011 18.4136C12.0011 18.4136 11.7466 18.4466 11.5642 18.5436C11.5258 18.5436 11.4593 18.5301 11.3428 18.5631C11.2515 18.5922 11.1311 18.6583 11.0069 18.6932C10.8301 18.7456 10.772 18.7223 10.772 18.7223L10.8011 18.7806C10.8011 18.7806 10.5707 18.7766 10.4939 18.7844C10.5075 18.7883 10.5036 18.7941 10.5036 18.7941C10.4901 18.7964 10.4771 18.801 10.4652 18.8077C10.4283 18.8317 10.3876 18.8493 10.3449 18.8601C10.3216 18.8639 10.3021 18.8639 10.273 18.8698C10.2827 18.8931 10.3585 19.0234 10.3934 19.1002C10.3644 19.1196 9.92736 19.4498 9.92736 19.4498C9.94092 19.4711 9.95199 19.4939 9.96039 19.5177C9.97395 19.5604 9.97984 19.6226 9.99341 19.6516C10.0263 19.7099 10.0458 19.7196 10.0458 19.7196C10.0458 19.7196 9.99341 19.7293 9.90202 19.7526C9.82445 19.7721 9.72922 19.805 9.59482 19.8244C9.55358 19.8298 9.5121 19.833 9.47053 19.8341C9.48999 19.8769 9.57536 20.04 9.41805 20.2283C9.26074 20.4165 9.21223 20.4439 9.16371 20.5643C9.1393 20.5458 9.1133 20.5295 9.08602 20.5156C9.03367 20.4923 8.96173 20.4575 8.93651 20.4108C8.92181 20.473 8.90234 20.5341 8.87827 20.5933C8.82976 20.7234 8.75795 20.8516 8.74439 20.9486C8.69191 20.8904 8.59488 20.7758 8.46087 20.7991C8.32685 20.8224 8.2201 21.005 8.1968 21.0574C8.1968 21.0244 8.1735 20.9992 8.16774 21.038C8.16378 21.0807 8.09005 21.5272 7.6784 21.8884C7.67456 21.7972 7.67456 21.5952 7.66483 21.5292C7.62643 21.5676 7.57946 21.6244 7.29978 21.7448C7.02598 21.8651 7.06938 21.9856 7.06938 21.9856C7.06938 21.9856 7.04608 21.7936 7.19366 21.5913C7.34317 21.3895 7.43443 21.2942 7.43443 21.2788C7.43202 21.263 7.42528 21.2482 7.41498 21.236C7.39552 21.2165 7.35674 21.1932 7.35674 21.1778C7.38003 21.1682 7.61107 21.0574 7.5975 20.8282C7.58394 20.6225 7.49664 20.5156 7.43443 20.44C7.42483 20.4302 7.52582 20.3584 7.51213 20.3351C7.5024 20.3216 7.37824 20.2302 7.36262 20.1815C7.36629 20.1525 7.37281 20.1239 7.38208 20.0962C7.39565 20.0534 7.40538 20.0242 7.40154 19.9952C7.39181 19.9467 7.33933 19.8126 7.32384 19.7991C7.33741 19.8029 7.43443 19.7991 7.43443 19.7991C7.43443 19.7991 7.35686 19.6748 7.34317 19.6165C7.32947 19.5583 7.30042 19.4048 7.28493 19.3758C7.31795 19.3796 7.39949 19.3854 7.39949 19.3758C7.40346 19.3466 7.32768 19.2981 7.36109 19.2606C7.38438 19.2644 7.42906 19.2839 7.47168 19.3383C7.44838 19.2761 7.4096 19.1557 7.32794 19.1072C7.36634 19.0937 7.4969 19.0586 7.61146 19.1266C7.72602 19.1945 7.76506 19.2896 7.76506 19.2896C7.76506 19.2896 7.83302 19.3421 7.93798 19.4198C8.0583 19.5149 8.21165 19.6502 8.45639 19.746C8.50887 19.7751 8.64275 19.7751 8.73991 19.7557C8.78221 19.7456 8.82276 19.7293 8.86023 19.7072C8.87375 19.6992 8.88808 19.6927 8.90298 19.6877C8.8821 19.6458 8.8581 19.6056 8.83117 19.5673C8.86419 19.5673 8.90298 19.5712 8.90298 19.5712C8.90298 19.5712 8.92627 19.5188 8.82144 19.4176C8.84474 19.3943 8.87392 19.3792 8.87392 19.3399C8.8409 19.3361 8.78266 19.2876 8.76909 19.2681C8.78842 19.2546 8.8176 19.2099 8.85063 19.1963C8.82144 19.173 8.74963 19.0759 8.71661 19.0663C8.74816 19.0546 8.77868 19.0403 8.80787 19.0235C8.80787 19.0235 8.6448 18.9808 8.59232 18.9458C8.53984 18.9074 8.46227 18.841 8.41568 18.8215C8.36704 18.8021 8.28166 18.7925 8.24672 18.7536C8.27962 18.7633 8.3321 18.7536 8.37101 18.7536C8.40007 18.7536 8.41376 18.7574 8.42336 18.7574C8.41952 18.7438 8.41952 18.7147 8.4953 18.7051C8.53175 18.6996 8.56711 18.6884 8.60013 18.672C8.60013 18.672 8.52819 18.6682 8.44653 18.5905C8.36487 18.5128 8.29703 18.4507 8.25043 18.441C8.20192 18.4313 8.11066 18.474 8.05434 18.47C7.97664 18.4604 7.94362 18.4215 7.94362 18.4215C7.94362 18.4215 7.68544 18.4448 7.11264 18.0954C6.61741 17.7924 6.40185 17.5245 6.40185 17.5245C6.35551 17.5077 6.31071 17.4869 6.26797 17.4623C6.0816 17.3653 5.82329 17.1633 5.8311 16.8991L5.83008 16.901Z" fill="#C2A44D"/>
<path fill-rule="evenodd" clip-rule="evenodd" d="M12.9752 5.24818C13.0202 5.26278 13.0601 5.2897 13.0904 5.32588C13.1817 5.43071 13.2399 5.62873 13.0322 5.84044C13.1137 5.86949 13.1474 5.87884 13.2186 5.86949C13.1467 5.955 12.9837 6.13753 12.9739 6.29676C12.9642 6.42681 13.0458 6.46572 13.0458 6.46572C13.0458 6.46572 12.9215 6.60933 12.9157 6.84972C12.9744 6.78353 13.0386 6.72246 13.1077 6.66719C13.2515 6.55263 13.4495 6.42258 13.5835 6.34105C13.5817 6.37522 13.5863 6.40943 13.5971 6.44191C13.5971 6.44191 13.8474 6.23609 14.0579 6.32748C14.153 6.37023 14.1102 6.50412 14.1102 6.50412C14.1102 6.50412 14.2404 6.45561 14.3316 6.54687C14.4229 6.63813 14.5519 6.87353 14.6181 6.96479C14.6472 7.00754 14.7229 7.08908 14.8005 7.21529C14.9065 7.39198 14.995 7.57859 15.0647 7.77247C15.0685 7.67148 15.0938 7.51429 15.3812 7.61324C15.6686 7.71423 15.9948 7.92594 16.2685 8.34284C16.5423 8.75973 16.6102 9.23039 16.748 9.40959C16.8878 9.58239 17.0316 9.86975 17.0413 9.9902C17.051 10.1106 16.9985 10.4989 17.2859 11.5494C17.3674 11.2232 17.4917 10.4989 17.4917 10.4989L17.5597 9.86002L17.6374 7.88332L15.5732 6.1685L13.9597 4.99756L12.9092 5.09855L12.9751 5.24805L12.9752 5.24818Z" fill="#CAA13E"/>
<path fill-rule="evenodd" clip-rule="evenodd" d="M16.8091 8.19123C16.8091 8.19123 16.7799 7.99923 16.2945 7.67283C15.809 7.35053 15.4304 7.35053 15.0809 7.07673C14.8129 6.86118 14.5333 6.36595 14.3513 6.20288C14.1746 6.04172 14.1455 5.57568 14.1455 5.57568L14.7416 5.07647L15.6281 3.79507L16.3776 2.96985L16.7367 3.46905L17.2359 4.05542L17.5136 5.23212L17.6146 6.95449L16.8082 8.19136L16.8091 8.19123Z" fill="#B59544"/>
<path fill-rule="evenodd" clip-rule="evenodd" d="M17.4105 10.2507C17.4252 9.98949 17.393 9.72778 17.3153 9.47796C17.1873 9.07988 16.9076 8.37306 16.7777 8.10836C16.7252 7.81511 16.7641 7.79181 16.8204 7.75879C16.8768 7.72577 17.0885 7.60519 17.2044 7.18215C17.3204 6.75911 17.6802 6.74529 17.6802 6.74529L17.9015 6.58221L18.2375 7.42292L18.5307 8.18221L18.6219 8.76282L18.6899 9.25793L18.5307 10.3046L17.7443 11.0152L17.4104 10.2507H17.4105Z" fill="#C89D3A"/>
<path fill-rule="evenodd" clip-rule="evenodd" d="M6.44043 21.9227V21.9012C6.45677 21.8909 6.47119 21.8779 6.48305 21.8628C6.49662 21.8433 6.50648 21.82 6.51608 21.8142C6.53553 21.8045 6.6268 21.7758 6.67531 21.7851C6.72382 21.7943 6.85208 21.8471 6.92004 21.8433C7.05982 21.8395 7.22289 21.7326 7.48119 21.7812C7.86955 21.853 7.96081 22.1171 8.18609 22.2666C8.33969 22.3716 8.49866 22.3248 8.52196 22.3248H8.57431C8.58404 22.3248 8.65585 22.2433 8.69476 22.2473C8.77245 22.2511 8.78013 22.3152 8.82865 22.3191C8.94321 22.3326 9.16465 22.2608 9.27536 22.29C9.3082 22.3003 9.33805 22.3184 9.36239 22.3427C9.38673 22.367 9.40483 22.3968 9.41514 22.4297C9.43844 22.5015 9.41898 22.5927 9.36266 22.6452C9.24234 22.7558 9.12778 22.8608 9.10449 22.9524C9.13412 22.975 9.16257 22.9991 9.18973 23.0246C8.22899 22.7798 7.30463 22.4097 6.44043 21.9238V21.9227Z" fill="#CEB052"/>
<path fill-rule="evenodd" clip-rule="evenodd" d="M16.7725 18.038C16.7725 18.038 17.0753 17.6342 17.1803 17.4341C17.2851 17.2279 16.8482 14.6167 16.8482 14.6167L17.7259 11.7411L17.7025 10.8051C17.7025 10.8051 17.7453 9.94099 17.8462 9.5662C17.9667 9.78175 18.3415 10.042 18.423 10.1798C18.4614 9.91564 18.5918 9.35846 18.5725 8.76428C18.6443 8.87487 18.8171 9.98758 18.8171 9.98758L18.9899 10.737L19.2152 11.5332L19.4657 12.374L19.6152 12.9546L19.7006 13.0944L19.7725 13.339L19.8405 13.6032L20.0366 14.2226L20.1518 14.7313L20.243 15.6536C20.2629 15.7243 20.2772 15.7963 20.2858 15.8692C20.2896 15.9702 20.2722 16.0284 20.2722 16.0459C20.2722 16.0635 20.3052 16.2673 20.2917 16.4207C20.2722 16.5743 20.2722 16.6945 20.1518 16.8047C20.0313 16.9149 19.9557 17.5736 19.9557 17.5736L19.7401 17.43C19.7401 17.43 19.7829 17.2338 19.6819 17.0552C19.5809 16.8767 19.3848 16.8397 19.2741 16.8689C19.1635 16.8922 18.9422 16.927 18.8702 16.9892C18.8023 17.0513 18.6354 17.2435 18.4819 17.3309C18.2899 17.4461 17.9771 17.4552 17.8102 17.494C17.6412 17.5324 17.4548 17.6476 17.2586 17.7814C17.1048 17.881 16.9423 17.9667 16.7732 18.0374L16.7725 18.038Z" fill="#CCA847"/>
<path fill-rule="evenodd" clip-rule="evenodd" d="M16.7725 22.2821C16.7725 22.2821 16.7853 22.2904 16.81 22.304C18.1895 21.6577 19.4256 20.7415 20.4452 19.6096C20.434 19.2166 20.4196 18.8138 20.4037 18.6646C20.3708 18.348 20.3941 18.0257 20.3844 17.8394C20.3746 17.653 20.2698 16.8937 20.2213 16.6976C20.1688 16.5015 20.0677 16.4044 20.0523 16.4044C20.0388 16.4083 19.9571 16.7734 19.9571 16.8652C19.9571 16.9569 19.9376 17.1779 19.9376 17.2342C19.9241 17.2302 19.9183 17.1958 19.9183 17.1817C19.8989 17.2302 19.8756 17.3157 19.8658 17.3254C19.8561 17.3352 19.8794 17.2439 19.8658 17.2245C19.8523 17.205 19.8274 17.2147 19.8328 17.1662C19.8351 17.1374 19.8396 17.1089 19.8464 17.0808C19.8464 17.0808 19.7881 17.1662 19.7455 17.3837C19.7028 17.5992 19.7028 17.6051 19.6873 17.6245C19.6737 17.6479 19.596 17.7254 19.592 17.7546C19.5882 17.807 19.664 17.8595 19.6697 17.8885C19.6736 17.9372 19.6018 18.1623 19.5785 18.2725C19.5552 18.3827 19.5649 18.5987 19.5401 18.7094C19.5206 18.8104 19.5017 18.8686 19.4352 18.9112C19.4838 18.921 19.5304 18.9345 19.5304 18.9345C19.5304 18.9345 19.5983 19.2219 19.4255 19.4666C19.3634 19.552 19.348 19.5909 19.2819 19.6686C19.1517 19.8122 19.0507 19.9758 19.041 20.0822C19.0343 20.0508 19.0298 20.019 19.0274 19.9869C19.0274 19.9869 18.8256 20.222 18.7401 20.356C18.6295 20.5288 18.476 20.519 18.4329 20.5618C18.3897 20.6045 18.3804 20.6821 18.3945 20.7443C18.3561 20.7539 18.2839 20.7676 18.2352 20.9171C18.2119 20.9947 18.1537 21.0707 18.0624 21.1229C17.9712 21.1752 17.8605 21.1909 17.8041 21.2045C17.8527 21.2181 17.8721 21.2181 17.8954 21.2335C17.8663 21.2821 17.7323 21.3578 17.5828 21.455C17.4333 21.5462 17.3614 21.6801 17.3245 21.7676C17.2861 21.8491 17.2294 21.9016 17.1382 21.9113C17.1766 21.9346 17.2334 21.9889 17.2624 22.0064C17.2197 22.0161 17.1472 22.0161 17.0178 22.1269C16.8819 22.2395 16.8353 22.2725 16.7731 22.2822L16.7725 22.2821Z" fill="#C39D3C"/>
<path fill-rule="evenodd" clip-rule="evenodd" d="M14.0807 23.184C14.1551 23.1319 14.2356 23.0892 14.3205 23.0569C14.6233 22.9366 14.9437 22.9133 15.0699 22.8745C15.1904 22.8361 15.2855 22.7831 15.435 22.754C15.431 22.7881 15.4277 22.8201 15.4241 22.8503C14.9833 22.9889 14.5345 23.1003 14.0801 23.184H14.0807Z" fill="#D2BA6B"/>
<path fill-rule="evenodd" clip-rule="evenodd" d="M19.6616 15.2135C19.6616 15.2135 19.5996 15.5494 19.4888 15.7611C19.3781 15.9728 19.2584 16.266 19.2584 16.266C19.2592 16.1999 19.267 16.1341 19.2817 16.0697C19.142 16.1513 18.8021 16.3475 18.7057 16.4348C18.6145 16.5163 18.461 16.6601 18.4222 16.728C18.5135 16.4601 18.6086 16.2194 18.6242 16.1086C18.4844 16.2096 17.8319 16.7475 17.4922 17.1028L16.4339 17.9591C16.3117 18.025 16.186 18.0839 16.0572 18.1355C15.8748 18.2131 15.6592 18.2791 15.5 18.3413C15.5427 18.2268 15.6106 18.1257 15.7058 18.0286C15.8068 17.9335 16.1096 17.6053 16.1562 17.4526C16.199 17.2934 16.2087 17.1983 16.1524 17.0643C16.0999 17.0779 15.9796 17.0837 15.8981 17.107C15.8165 17.1303 15.7291 17.2176 15.7291 17.2176C15.7291 17.2176 15.7912 16.8623 15.9252 16.5264C15.8242 16.5303 15.6514 16.5593 15.6514 16.5593C15.6514 16.5593 15.8922 16.1555 16.3042 15.874C16.178 15.9009 16.0545 15.9392 15.9353 15.9885C15.6945 16.0894 15.4305 16.2389 15.2344 16.3205C15.345 16.1669 16.1217 15.0584 16.5839 14.0253C17.0447 12.9943 17.2168 12.7302 17.3178 12.1769C17.3702 11.9031 17.3562 11.4985 17.3702 11.1361C17.3838 10.7768 17.4284 10.4545 17.3994 10.239C17.5197 10.3885 17.9703 10.8098 17.9857 11.7517C17.9993 12.6934 17.5548 13.9653 17.0828 14.6506C17.198 14.6836 17.4965 14.7225 17.8032 14.1898C18.1099 13.6571 18.1062 13.5083 18.2169 13.2869C18.2305 13.3976 18.2265 13.4364 18.2265 13.4364C18.2265 13.4364 18.6732 12.8947 18.8848 12.2131C18.9276 12.5063 19.0538 12.7646 18.8556 13.3025C18.679 13.7879 18.4479 13.9064 18.4479 13.9064C18.4479 13.9064 18.5625 13.8869 18.7313 13.786C18.7605 13.8578 18.7548 13.9396 18.8033 13.9685C18.8518 13.9974 18.9178 14.0462 18.9276 14.0928C18.9799 14.0151 19.0615 13.916 19.0868 13.8423C19.0673 13.9959 19.0538 14.6675 19.1252 15.0093C19.2748 14.9957 19.4282 14.986 19.533 14.716C19.4612 14.9802 19.4612 15.1393 19.5097 15.3646C19.5893 15.3103 19.6611 15.2132 19.6611 15.2132L19.6616 15.2135Z" fill="#C0993A"/>
<path fill-rule="evenodd" clip-rule="evenodd" d="M14.6166 4.51243C14.6166 4.51243 14.4671 4.57451 14.2128 4.57451C13.9915 4.57451 14.0536 4.48914 13.708 4.48914C13.176 4.48914 11.3177 4.79634 10.9914 4.79198C10.7797 4.78814 11.7059 4.88325 11.7059 4.88325L14.073 4.91627L14.5487 4.87787L14.7254 4.51819L14.6166 4.51243Z" fill="#A88F33"/>
<path fill-rule="evenodd" clip-rule="evenodd" d="M8.4799 9.13699C8.4799 9.13699 8.17692 9.36803 8.04879 9.5448C7.92066 9.72157 7.8527 9.83792 7.70703 9.98167C7.74122 9.98297 7.77539 9.97838 7.80802 9.9681C7.80802 9.9681 7.80802 10.0065 7.78473 10.0166C7.80486 10.0144 7.82524 10.0166 7.84437 10.0233C7.86351 10.0299 7.88092 10.0408 7.89532 10.055C7.85257 10.0783 7.73609 10.1949 7.82735 10.3328C7.89532 10.4376 8.03906 10.4472 8.03906 10.4472C8.03906 10.4472 8.00604 10.5424 8.1439 10.5327C8.44098 10.5191 8.77302 10.389 8.92636 10.422C9.07996 10.4604 9.16726 10.4745 9.27593 10.6629C9.39113 10.8493 9.49148 10.8784 9.49148 10.8784C9.49148 10.8784 9.55945 10.7055 9.54396 10.4473C9.59969 10.3082 9.63058 10.1603 9.63523 10.0105L9.53423 9.26679L9.09353 8.70947L8.52265 9.02602L8.4799 9.13661V9.13699Z" fill="#E3C571"/>
<path fill-rule="evenodd" clip-rule="evenodd" d="M9.01855 9.02978C9.01855 9.02978 9.06131 9.13077 9.24 9.14037C9.22054 9.18312 9.22054 9.18901 9.22643 9.2219C9.23027 9.25493 9.23603 9.30344 9.23603 9.30344C9.2557 9.29392 9.27348 9.28091 9.28851 9.26504C9.29824 9.30779 9.27878 9.37563 9.28851 9.42427C9.29451 9.45385 9.30427 9.48255 9.31756 9.50965C9.3204 9.50301 9.32365 9.49655 9.32729 9.49032C9.33113 9.48059 9.36569 9.59515 9.46131 9.68232C9.46122 9.66892 9.46453 9.65571 9.47091 9.64392C9.47237 9.66827 9.48043 9.69176 9.4942 9.71189C9.48705 9.70848 9.48052 9.70389 9.47488 9.69832C9.47488 9.69832 9.48448 10.0055 9.53696 10.1644C9.54573 10.1541 9.55353 10.1431 9.56025 10.1313C9.56025 10.1217 9.55641 10.2168 9.54669 10.2849C9.53312 10.3529 9.54284 10.448 9.54284 10.448C9.57785 10.4205 9.61633 10.3976 9.65728 10.38C9.71552 10.3566 9.81088 10.2848 9.86899 10.1256C9.9027 10.0354 9.9287 9.94253 9.94669 9.84795C9.96546 9.8841 9.97842 9.92297 9.98509 9.96315C9.98906 10.0117 10.0803 9.98645 10.0803 9.98645L10.0998 9.77474L10.215 9.29512L10.3198 8.99803L10.8246 8.21173L11.7368 7.50926L12.5329 7.69179L13.2047 6.77915L12.0474 6.08398L10.9523 6.19854L9.95833 7.57518L9.1623 8.82382L9.01855 9.02965V9.02978Z" fill="#D8B65B"/>
<path fill-rule="evenodd" clip-rule="evenodd" d="M14.7563 7.03304C14.7563 7.03304 14.6883 7.04661 14.4922 7.14824C14.2961 7.24988 14.1602 7.28213 14.0844 7.43164C14.0086 7.58114 14.0029 7.69967 14.0029 7.69967C14.0029 7.69967 14.1369 7.64143 14.2146 7.62197C14.2961 7.60265 14.3874 7.60841 14.3777 7.64143C14.3683 7.66407 14.3553 7.68504 14.3393 7.70351C14.3393 7.70351 14.4929 7.69967 14.4888 7.77545C14.4847 7.85122 14.4597 7.93468 14.4306 7.97154C14.4015 8.00994 14.2811 8.06677 14.2676 8.11145C14.2345 8.20271 14.2811 8.20655 14.2636 8.28028C14.25 8.35221 14.186 8.49199 13.9762 8.7366C13.7607 8.98133 13.669 9.15413 13.669 9.15413C13.669 9.15413 13.5642 8.95804 13.5098 8.78908C13.4714 8.80841 13.2652 8.92297 13.2652 8.92297L12.7875 7.25896L12.7971 7.14824C12.7971 7.14824 12.8399 7.09589 12.8496 6.99874C12.7778 6.97544 12.7681 6.95599 12.6728 6.86485C12.5776 6.77372 12.5 6.66287 12.3409 6.58709C12.3176 6.54434 12.2884 6.48623 12.172 6.4628C12.0555 6.43938 11.9856 6.42018 11.9856 6.42018C11.9856 6.42018 12.0477 6.39676 12.0769 6.34824C12.0049 6.35797 11.9468 6.38127 11.7895 6.37743C11.6303 6.37346 11.6127 6.3677 11.5254 6.38127C11.4381 6.39484 11.3334 6.43375 11.2944 6.29973C11.2516 6.26671 11.1604 6.29589 11.0827 6.41032C11.005 6.52476 10.9779 6.61615 10.8283 6.66082C10.8178 6.72672 10.7948 6.78999 10.7604 6.84719C10.7176 6.91912 10.6497 6.99093 10.5584 7.09768C10.4147 7.26664 10.4379 7.54428 10.2088 7.75599C9.97779 7.96757 10.2472 7.16949 10.2472 7.16949L10.6161 6.28629L11.6666 5.25909L13.2977 5.1485L13.457 5.9933L14.2531 6.26709L14.756 7.03407L14.7563 7.03304Z" fill="#D3AE4D"/>
<path fill-rule="evenodd" clip-rule="evenodd" d="M15.0178 7.2164L14.3323 6.22811L13.8527 5.85909C13.8527 5.85909 13.5109 5.2301 13.4877 5.21064C13.4682 5.19707 13.1459 5.16213 12.9401 5.14856L12.9785 5.24366C13.0234 5.25826 13.0633 5.28518 13.0937 5.32136C13.1849 5.42619 13.2432 5.62421 13.0354 5.83592C13.117 5.86498 13.1506 5.87432 13.2218 5.86498C13.15 5.95048 12.9869 6.13301 12.9772 6.29224C12.9675 6.42229 13.049 6.46107 13.049 6.46107C13.049 6.46107 12.9247 6.60482 12.9189 6.84507C12.9776 6.77888 13.0419 6.71782 13.1109 6.66254C13.2547 6.54734 13.4527 6.41781 13.5867 6.33627C13.5849 6.37049 13.5895 6.40474 13.6003 6.43726C13.6003 6.43726 13.8507 6.23144 14.0611 6.3227C14.1562 6.36546 14.1134 6.49947 14.1134 6.49947C14.1134 6.49947 14.2436 6.45096 14.3349 6.54222C14.4261 6.63349 14.5562 6.86837 14.6222 6.95976C14.6513 7.00251 14.7271 7.08405 14.8046 7.21013C14.9106 7.38686 14.9991 7.57351 15.0688 7.76744C15.0727 7.68974 15.0883 7.58107 15.2224 7.58107L15.0185 7.21601L15.0178 7.2164Z" fill="#CAA13E"/>
<path fill-rule="evenodd" clip-rule="evenodd" d="M4.73836 10.0283C4.73836 10.0283 4.68985 9.90787 4.73836 9.67299C4.78687 9.43811 4.86265 9.32739 4.88786 8.98179C4.91308 8.63619 5.13836 8.20508 5.13836 8.20508L5.76159 7.92169L6.20242 8.04201L6.33247 8.63235L5.77516 8.93955C5.77516 8.93955 5.7461 9.0696 5.58879 9.17443C5.43148 9.27926 5.21401 9.3608 5.16165 9.46768C5.13036 9.53312 5.10752 9.60229 5.09369 9.6735C5.09369 9.6735 4.93445 9.64048 4.83935 9.74531C4.73836 9.85219 4.7422 9.94729 4.73836 10.0288V10.0283Z" fill="#F4EFC8"/>
<path fill-rule="evenodd" clip-rule="evenodd" d="M5.99514 9.87301C5.99514 9.87301 5.94266 9.90604 5.90387 9.98821C5.86547 9.92613 5.7737 9.55711 5.76986 9.22508C5.76602 8.89304 5.74618 8.81074 5.82298 8.69631C5.89978 8.58187 6.20096 8.4613 6.15821 8.25522C6.11546 8.05912 5.93677 7.97759 5.71738 8.03391C5.56378 8.07231 5.44947 8.39896 5.29024 8.56203C5.1698 8.68632 5.02618 8.66687 4.9874 8.73483C4.93492 8.8261 4.98343 8.91736 4.96794 8.9756C4.96397 8.99506 4.91546 9.09989 4.82804 9.2261C4.6514 9.48043 4.35239 9.83973 4.31348 10.162C4.32704 9.97951 4.31744 9.97567 4.36596 9.77368L4.33677 9.72517L4.52877 9.09605L4.65306 8.57765L4.93082 7.70955L5.42003 6.82226L5.89581 6.29016L6.39091 6.32318L6.44915 7.06687L6.73267 8.46309L7.32877 9.19704L6.37338 9.83999L5.99475 9.87301H5.99514Z" fill="#EBCC73"/>
<path fill-rule="evenodd" clip-rule="evenodd" d="M6.29363 10.1326C6.29363 10.1326 6.21209 10.152 6.18291 10.1365C6.15372 10.121 6.12479 10.1035 6.13439 10.084C6.14399 10.0646 6.19647 10.0317 6.19647 10.0161C6.19755 10.002 6.19309 9.98799 6.18403 9.97712C6.17497 9.96625 6.16203 9.95933 6.14796 9.95784C6.10329 9.95208 6.08972 9.98113 6.08972 9.98113C6.08972 9.98113 6.04697 9.94824 6.01215 9.94273C6.03275 9.94021 6.05348 9.93889 6.07423 9.93877C6.02057 9.91446 5.96365 9.89812 5.90527 9.89025C5.95379 9.8612 6.04902 9.77569 6.1111 9.77569C6.17318 9.77569 6.21209 9.76609 6.20236 9.73307C6.19263 9.70005 6.14412 9.65154 6.09177 9.63208C6.1111 9.60878 6.12479 9.57384 6.0782 9.47848C6.02956 9.38338 6.04902 9.31925 6.06463 9.29608C6.0782 9.2669 6.12671 9.21454 6.15001 9.18152C6.17331 9.1485 6.19276 9.10382 6.23155 9.08053C6.251 9.06696 6.31308 9.04213 6.37529 9.01845C6.44326 8.99515 6.49958 8.96597 6.53836 8.99515C6.58111 9.02421 6.56166 9.06312 6.56166 9.06312C6.56166 9.06312 6.69567 9.01448 6.81599 9.07669C6.93644 9.1348 7.22969 9.17179 7.22969 9.17179L7.33478 9.3835L6.63961 9.9796L6.35225 10.1233L6.29401 10.1329L6.29363 10.1326Z" fill="#E5C66B"/>
<path fill-rule="evenodd" clip-rule="evenodd" d="M7.26001 9.1603C7.26001 9.1603 7.04446 9.30404 6.99595 9.35639C7.02501 9.36036 7.07352 9.37982 7.05406 9.40887C7.03077 9.43793 6.89099 9.53892 6.81329 9.63415C6.73176 9.72926 6.65406 9.8497 6.62693 9.90794C6.59787 9.9603 6.37643 10.1138 6.30078 10.1331C6.46001 10.1331 6.7804 9.937 6.90072 9.937C6.89688 9.99524 6.93374 10.0613 7.00171 10.067C7.06968 10.0728 7.26577 10.1098 7.52984 9.94673C7.7939 9.7875 7.70661 9.66897 7.8172 9.5914C8.02891 9.4515 8.11429 9.32721 8.23077 9.24964C8.34725 9.17207 8.40753 9.15441 8.40753 9.15441C8.40753 9.15441 8.41137 9.09617 8.44593 9.10206C8.45539 9.10314 8.46438 9.10679 8.47191 9.11261C8.47945 9.11843 8.48525 9.1262 8.48868 9.13508C8.48868 9.13508 8.69067 8.99134 8.94948 8.95255C8.94345 8.94986 8.93862 8.94502 8.93592 8.93899C8.93592 8.93899 8.95524 8.92926 8.95921 8.91953C8.95921 8.91953 8.97278 8.90007 8.98251 8.9098C8.99224 8.91953 9.00581 8.99134 9.02526 9.02052C9.06801 9.00107 9.14955 8.81854 9.14955 8.81854L9.34577 8.25739V7.74475L9.19217 7.77393L8.04017 8.26315L7.34104 8.9875L7.2595 9.1603H7.26001Z" fill="#E6BD62"/>
<path fill-rule="evenodd" clip-rule="evenodd" d="M10.5695 6.65282C10.6318 6.6377 10.6916 6.61346 10.7468 6.58089C10.7235 6.64309 10.7235 6.71106 10.6225 6.85865C10.5215 7.00623 10.5177 7.02761 10.4362 7.18095C10.3546 7.34018 10.3449 7.5693 10.2672 7.67017C10.302 7.65325 10.3394 7.64213 10.3778 7.63727C10.3778 7.63727 10.3002 7.70524 10.2672 7.77705C10.2342 7.84886 10.1759 7.99836 10.0323 8.08975C9.8887 8.18114 9.70604 8.23926 9.50994 8.45481C9.31372 8.66639 9.11186 8.93442 9.01074 9.03081C9.06322 8.93954 9.13503 8.75701 9.15449 8.63669C9.17394 8.51637 9.15052 8.3725 9.18354 8.2134C9.21657 8.0543 9.21657 7.93961 9.37554 7.66185C9.53452 7.38409 9.80665 6.4191 9.80665 6.4191L10.393 6.23273L10.5698 6.65218L10.5695 6.65282Z" fill="#B6933F"/>
<path fill-rule="evenodd" clip-rule="evenodd" d="M10.1511 6.29296C10.1511 6.29296 9.97445 6.5473 9.92594 6.77258C9.87743 6.99786 9.92197 6.9784 9.89292 7.08912C9.87554 7.15663 9.87554 7.22744 9.89292 7.29494C9.95409 7.19639 10.0379 7.11382 10.1373 7.05405C10.3043 6.95318 10.4402 6.88125 10.5213 6.79587C10.6028 6.70461 10.6708 6.5551 10.8474 6.44054C10.7756 6.43082 10.6746 6.39779 10.6554 6.40214C10.7273 6.32061 10.9428 6.19632 11.1602 6.04682C11.3758 5.89322 11.3622 5.83126 11.7118 5.67792C11.5972 5.69738 11.5428 5.66819 11.4476 5.67792C11.486 5.59638 11.6204 5.55747 11.7548 5.42358C11.8892 5.2897 11.6694 5.09155 11.6694 5.09155L10.6454 5.71094L10.1503 6.29347L10.1511 6.29296Z" fill="#C49937"/>
<path fill-rule="evenodd" clip-rule="evenodd" d="M7.37598 5.83607L7.39927 5.6497L7.69252 5.17981L7.99933 4.3546V3.2264L7.97604 2.57399L8.02455 2.14672L8.06141 2.01092L8.10033 1.95844L8.35069 2.08848L8.69642 2.55837L8.72944 3.46525L8.39345 4.89629L7.43422 5.94295L7.37598 5.83607Z" fill="#DFC068"/>
<path fill-rule="evenodd" clip-rule="evenodd" d="M8.14158 1.89849C8.14158 1.89849 7.98798 1.90246 7.95521 2.54131C7.92245 3.18015 7.90657 3.51603 7.88328 3.83257C7.85998 4.14911 7.80571 4.34124 7.77845 4.52774C7.75118 4.71423 7.73569 4.96844 7.6484 5.12383C7.61 5.19564 7.52795 5.42092 7.33569 5.58988C7.12014 5.77625 6.79809 5.90643 6.74933 5.91615C6.66382 5.93548 6.2308 5.97823 6.05416 6.07539C5.99208 6.10841 5.8852 6.14719 5.7668 6.25791C5.53179 6.4695 5.21921 6.84812 4.99393 7.30444C4.64833 7.98604 4.30273 9.91027 4.30273 9.91027L4.38043 9.78022C4.38043 9.78022 4.39016 9.60742 4.56296 9.30444C4.73192 9.00159 4.68341 8.66175 4.91829 8.08115C5.00955 7.85983 5.12411 7.57247 5.26389 7.32774C5.48533 6.92966 5.75323 6.5879 6.02318 6.40153C6.46389 6.09868 6.94939 6.03263 6.94939 6.03263L7.47176 5.68703C7.47176 5.68703 7.56302 5.51039 7.68347 5.30841C7.8523 5.02502 8.06747 4.70847 8.11445 4.24831C8.18638 3.56671 8.01345 3.12012 8.02318 2.71628C8.03291 2.31244 8.03675 2.01535 8.11841 1.94342C8.20008 1.87148 8.14171 1.89875 8.14171 1.89875L8.14158 1.89849Z" fill="#A88F33"/>
<path fill-rule="evenodd" clip-rule="evenodd" d="M8.136 4.94451C8.136 4.94451 8.3664 4.37747 8.47187 3.87456C8.49132 3.77357 8.53011 3.6727 8.53984 3.59117C8.58835 3.11539 8.60192 2.9193 8.53984 2.65907C8.49132 2.46707 8.30496 2.29402 8.2078 2.15987C8.1127 2.01997 8.06803 1.96787 8.08748 1.93843C8.10694 1.90899 8.18259 1.86086 8.25632 1.86662C8.33469 1.8689 8.41178 1.8871 8.4829 1.92011C8.55401 1.95312 8.61768 2.00024 8.67001 2.05862C8.81952 2.23142 8.93792 2.81792 8.93792 2.81792L9.06246 3.59181L9.379 4.56653L8.13625 4.94528L8.136 4.94451Z" fill="#C99E3D"/>
<path fill-rule="evenodd" clip-rule="evenodd" d="M10.3058 4.36027C10.3058 4.36027 10.263 4.3796 10.1855 4.36027C10.1888 4.39197 10.1833 4.42397 10.1695 4.45274C10.1558 4.48151 10.1345 4.50594 10.1078 4.52334C10.0262 4.49032 9.26296 4.55637 9.26296 4.55637C9.26296 4.55637 8.90763 4.49416 8.79691 4.02427C8.71934 3.71157 8.85515 3.28059 8.81048 2.99707C8.74251 2.57954 8.64741 2.49787 8.63768 2.36795C8.62795 2.23803 8.61822 2.20488 8.61822 2.12334C8.57547 2.11362 8.55026 2.10005 8.50763 2.10005C8.49791 2.06165 8.51723 2.02811 8.47461 1.96014C8.49791 1.96987 8.65714 1.98933 8.8435 2.16597C8.9971 2.30971 8.9971 2.36206 9.02027 2.39125C9.04933 2.4203 9.28433 2.62165 9.38533 2.82235C9.48632 3.02306 9.68241 3.66306 9.72708 3.76789C9.74065 3.81064 9.76984 3.85339 9.84228 3.95042C9.95492 4.09032 10.1199 4.32162 10.3063 4.36002L10.3058 4.36027Z" fill="#B58634"/>
<path fill-rule="evenodd" clip-rule="evenodd" d="M9.03906 2.40051C9.15669 2.59053 9.26237 2.78769 9.35548 2.99085C9.47004 3.24903 9.53801 3.46074 9.68176 3.63354C9.60406 3.40839 9.4662 2.96563 9.38467 2.80832C9.2934 2.64192 9.10703 2.46272 9.03906 2.40064V2.40051Z" fill="#A88F33"/>
<path fill-rule="evenodd" clip-rule="evenodd" d="M7.71853 5.59546C7.71853 5.59546 7.52244 5.64398 7.15738 5.83623C7.03693 5.89831 6.9225 5.95066 6.81178 5.9993C6.52416 6.12935 6.21568 6.24954 5.97095 6.31585C5.9904 6.33914 6 6.34874 6 6.34874C6 6.34874 6 6.44398 6.05248 6.49825C6.02343 6.52743 5.63494 6.7915 5.74963 7.67495C5.8272 7.6459 5.91847 7.60698 5.93203 7.60698C5.95546 7.61095 5.96122 7.67495 5.99027 7.67495C6.01933 7.67495 6.11456 7.63655 6.21555 7.50599C6.21171 7.55847 6.15347 8.0866 6.46605 8.44193C6.52429 8.37396 6.67187 8.14868 6.67187 8.14868L6.67572 8.07687C6.67572 8.07687 6.68928 7.82638 6.77095 7.59726C6.85261 7.36814 7.01172 7.19918 7.01172 7.19918L7.84256 6.01274L7.71828 5.59534L7.71853 5.59546Z" fill="#E6C367"/>
<path fill-rule="evenodd" clip-rule="evenodd" d="M6.94232 7.33076C6.90428 7.35764 6.86237 7.37857 6.81803 7.39284C6.80447 7.34433 6.78501 7.17729 6.89957 7.01422C7.03359 6.818 7.32671 6.56366 7.40824 6.36142C7.46072 6.23124 7.43743 5.9051 7.90347 5.48757C8.36952 5.07003 8.55192 4.92641 8.55192 4.92641L9.30533 4.54779L10.2315 4.91285L9.77138 6.71636L9.41413 7.56116L7.99333 7.29326L6.94219 7.33076H6.94232Z" fill="#DCBA5A"/>
<path fill-rule="evenodd" clip-rule="evenodd" d="M7.49121 6.8481L7.66798 6.62679V6.46947C7.66798 6.46947 7.86407 6.41699 8.07566 6.20144C8.28724 5.98589 8.58049 5.57232 8.83879 5.59754C9.09709 5.62672 9.12231 6.15869 9.13204 6.30832C9.14176 6.45795 9.17479 6.79754 9.22714 6.98019C9.28538 7.16272 8.59802 7.85392 8.59802 7.85392L8.13121 8.20925L7.49121 6.8481Z" fill="#E9CE77"/>
<path fill-rule="evenodd" clip-rule="evenodd" d="M8.03418 8.68417C8.03418 8.68417 8.17792 8.45889 8.07258 8.41038C8.13466 8.27061 8.24922 8.12302 8.24922 8.12302C8.24922 8.12302 8.33076 7.92116 8.59482 7.67259C8.85889 7.42401 9.02209 7.25889 9.06484 7.09198C9.09119 6.9832 9.10553 6.87186 9.10759 6.75995C9.13614 6.78327 9.16668 6.80404 9.19885 6.82203C9.24161 6.84148 9.44346 7.0084 9.41441 7.3444C9.38535 7.6804 9.26081 7.82017 9.26081 7.82017C9.26081 7.82017 9.14049 7.94049 9.05511 8.0027C8.96372 8.06478 8.93082 8.13659 8.77735 8.14248C8.79312 8.12994 8.81085 8.12008 8.82983 8.11329C8.82983 8.11329 8.6706 8.09397 8.58509 8.17153C8.49959 8.2491 8.31783 8.48808 8.22656 8.56001C8.1353 8.61825 8.03456 8.6843 8.03456 8.6843L8.03418 8.68417Z" fill="#CDAE50"/>
<path fill-rule="evenodd" clip-rule="evenodd" d="M14.4875 4.90643C14.2581 4.82282 14.017 4.77566 13.773 4.76665C13.3652 4.75308 12.7691 4.77638 12.1847 4.78022C11.5555 4.78406 10.9847 4.56467 10.1925 4.52588C10.0624 4.44819 9.73167 4.10835 8.69922 4.82873C8.7613 4.82489 9.44879 4.6695 9.68751 4.96864C9.92828 5.26572 9.86031 5.77056 9.82741 5.89088C9.7652 6.15891 9.56322 6.54918 9.48181 6.82297C9.4004 7.09677 9.4196 7.24064 9.36136 7.43264C9.30312 7.62464 9.175 7.72 9.25064 7.94131C9.35163 7.87923 9.40424 7.87923 9.57295 7.50061C9.74165 7.12198 9.70696 6.85203 9.98664 6.53165C10.2604 6.20934 10.7162 5.76851 10.8896 5.65779C11.0629 5.54707 12.439 4.83257 13.8799 5.51417C14.2274 5.47731 14.4876 4.9063 14.4876 4.9063L14.4875 4.90643Z" fill="#D2A83E"/>
<path fill-rule="evenodd" clip-rule="evenodd" d="M9.27809 4.64044C9.27666 4.62585 9.27344 4.61149 9.26849 4.59769C9.25501 4.56929 9.23732 4.5431 9.21601 4.51999C9.21601 4.51999 8.87425 4.45791 8.70145 4.47724C8.39847 4.51026 8.12468 4.88505 7.99655 5.07731C7.86842 5.26956 7.70919 5.56652 7.53638 5.71999C7.53828 5.70504 7.53483 5.6899 7.52666 5.67724C7.52666 5.67724 7.53638 5.69081 7.51706 5.71027C7.49773 5.72972 7.4976 5.73932 7.50733 5.74867L7.53651 5.77772C7.54611 5.77772 7.81415 5.65727 8.1792 5.31692C8.56756 4.96159 8.86465 4.77932 9.02004 4.71686C9.10291 4.68164 9.18953 4.656 9.27822 4.64044H9.27809Z" fill="#C29637"/>
<path fill-rule="evenodd" clip-rule="evenodd" d="M15.9174 3.1875C15.9174 3.1875 15.8552 3.26507 15.7775 3.35057C15.6047 3.5331 15.3795 3.7388 15.1872 3.95051C15.0048 4.15249 14.799 4.30981 14.5678 4.57387C14.3366 4.83793 14.0686 5.13105 14.0008 5.21656C13.9387 5.30206 13.8902 5.44184 13.8902 5.51365C13.8571 5.49035 13.8184 5.46514 13.8184 5.46514C13.8347 5.49562 13.8542 5.52428 13.8766 5.55064C13.9251 5.61861 14.0008 5.70424 14.0397 5.75646C14.0874 5.82295 14.1217 5.89813 14.1405 5.97778C14.1638 5.98162 14.3133 6.0108 14.4998 5.70398C14.6863 5.39717 14.9308 5.06129 14.9308 5.06129L15.3192 4.48453L15.5639 3.99531L15.8711 3.44772L15.9178 3.1875H15.9174Z" fill="#AC8132"/>
<path fill-rule="evenodd" clip-rule="evenodd" d="M16.3083 2.79285C16.3083 2.79285 16.0733 2.98485 15.982 3.10005C15.8907 3.21525 15.6748 3.51758 15.6748 3.51758L15.7525 3.50785L16.1467 3.15841L16.3003 2.88462L16.3081 2.79336L16.3083 2.79285Z" fill="#A88F33"/>
<path fill-rule="evenodd" clip-rule="evenodd" d="M16.2374 18.2248C16.2374 18.2248 16.2335 18.0656 16.3229 17.9705C16.4141 17.8753 16.6452 17.7355 16.8704 17.2112C17.0957 16.6869 17.1208 16.5685 17.1208 16.5685C17.1208 16.5685 16.717 16.9141 16.468 16.9957C16.5262 16.8752 16.5593 16.7898 16.5885 16.7276C16.5554 16.6986 16.4157 16.6655 16.4021 16.6501C16.4797 16.5724 16.5224 16.382 16.6797 16.2558C16.8817 16.1022 17.2506 15.8383 17.5373 15.603C17.824 15.3677 18.3877 14.8205 18.4597 14.6613C18.5024 14.7234 18.512 14.7622 18.512 14.7622C18.512 14.7622 18.2286 15.1312 18.0811 15.3661C17.9509 15.5681 17.9606 15.6826 17.9606 15.6826L18.2286 15.5674C18.2286 15.5674 18.3062 15.8548 17.9548 16.2918C18.1084 16.2335 18.1704 16.2685 18.2577 16.2198C18.114 16.3112 17.9159 16.4355 17.7296 16.7772C17.547 17.1189 17.2985 17.517 16.8791 17.7654C16.4713 18.0276 16.2363 18.2237 16.2363 18.2237L16.2374 18.2248Z" fill="#A67A2E"/>
<path fill-rule="evenodd" clip-rule="evenodd" d="M15.1872 5.1129C15.1872 5.1129 15.0279 5.44481 15.0046 5.70311C15.0008 5.76532 14.9852 5.81383 14.9852 5.88564C14.9813 6.11668 14.9987 6.37498 14.9468 6.4953C14.9273 6.44679 14.9176 6.41377 14.8981 6.39444C14.8691 6.47597 14.8166 6.73031 14.7738 6.82541C14.7545 6.76333 14.7118 6.54778 14.7157 6.29345C14.7197 6.03911 14.7253 5.99047 14.7253 5.93812C14.7157 6.01569 14.6633 6.12065 14.6438 6.18273C14.6147 6.13037 14.5817 6.06241 14.5428 6.00609C14.5195 6.04449 14.4905 6.10119 14.4652 6.13037C14.4613 6.10708 14.4517 6.04487 14.4458 5.95757C14.4419 5.85658 14.4361 5.72653 14.4419 5.69927C14.4515 5.64692 14.5332 5.44109 14.706 5.25268C14.9118 5.0274 15.1235 4.5945 15.1856 4.46049C15.2477 4.32647 15.5118 3.76929 15.5118 3.76929H15.7137L15.4205 4.43719C15.4205 4.43719 15.2439 4.80225 15.1526 4.93639C15.0613 5.07054 14.8691 5.45492 14.7836 5.60442C14.8457 5.52289 14.8981 5.48013 14.9603 5.40244C15.0205 5.34804 15.1874 5.11316 15.1874 5.11316L15.1872 5.1129Z" fill="#8C6228"/>
<path fill-rule="evenodd" clip-rule="evenodd" d="M16.3107 2.7666C16.2777 2.86815 16.2256 2.96243 16.1571 3.04436C16.0366 3.18811 15.7783 3.38023 15.6523 3.53358C15.5371 3.68308 15.3067 4.09089 15.4114 4.57435C15.4498 4.46951 15.5221 4.26177 15.7143 4.02676C15.9066 3.79175 16.1124 3.52193 16.2135 3.31227C16.3144 3.10055 16.328 2.93364 16.328 2.93364L16.3664 2.88513L16.3431 2.77441L16.3101 2.7666H16.3107Z" fill="#CBA94C"/>
<path fill-rule="evenodd" clip-rule="evenodd" d="M20.2499 15.6521C20.2499 15.6521 20.1722 15.4405 20.1489 15.2483C20.1256 15.056 20.1873 15.0179 20.1159 14.7978C20.0731 14.6638 19.9956 14.6826 19.9761 14.6638C19.9567 14.645 19.9431 14.4425 19.9469 14.3318C19.9508 14.221 19.9431 14.0774 19.9236 14.0152C19.8946 13.9919 19.8751 13.9725 19.8324 13.8289C19.7839 13.6851 19.7606 13.6133 19.7373 13.5707C19.714 13.5281 19.6459 13.4891 19.6459 13.4464C19.6459 13.3609 19.7236 13.3163 19.7236 13.2928C19.7197 13.2443 19.6615 13.2832 19.6459 13.2695C19.6266 13.2462 19.6945 13.1064 19.6693 13.087C19.6596 13.0774 19.5916 13.1589 19.5741 13.1356C19.5546 13.1122 19.5313 12.8811 19.4964 12.7278C19.4635 12.5783 19.4284 12.4696 19.4246 12.425C19.4207 12.3822 19.1565 11.6288 19.0925 11.4463C19.041 11.292 18.9976 11.1352 18.9625 10.9764C18.943 10.8851 18.9295 10.6986 18.9197 10.7181C18.91 10.7375 18.9159 10.8326 18.9003 10.8288C18.8867 10.8248 18.8382 10.4929 18.8227 10.4404C18.8091 10.388 18.7275 10.21 18.7075 10.0813C18.6881 9.95109 18.6454 9.61125 18.6163 9.38021C18.5871 9.14917 18.5735 9.05407 18.5735 8.99621C18.5783 8.8547 18.5705 8.71305 18.5502 8.57291C18.5118 8.32818 18.435 8.03109 18.3677 7.85842C18.2376 7.53215 17.8919 6.6972 17.8301 6.48946C17.8301 6.43698 17.898 6.46616 17.898 6.46616C17.898 6.46616 18.0669 6.88946 18.1912 7.2156C18.3116 7.54187 18.4262 7.82923 18.4554 7.85842C18.4787 7.88747 18.6612 8.20786 18.7427 8.73215C18.8243 9.25644 18.8533 9.73989 18.9019 10.0622C18.9252 10.2158 18.9447 10.3787 18.9932 10.5418C19.0456 10.7186 19.1271 10.9011 19.234 11.1807C19.3252 11.4157 19.3932 11.6118 19.4301 11.7807C19.4728 11.9963 19.4728 12.1594 19.498 12.2662C19.5215 12.3575 19.5563 12.5399 19.6379 12.8038C19.7196 13.0678 19.8398 13.4077 19.9213 13.6193C20.0807 14.0426 20.1517 14.396 20.1758 14.5844C20.197 14.7786 20.269 15.4505 20.2495 15.6523L20.2499 15.6521Z" fill="#A88F33"/>
<path fill-rule="evenodd" clip-rule="evenodd" d="M16.3219 2.74595L16.3122 2.76924C16.3122 2.76924 16.3412 2.77897 16.3355 2.81788C16.3359 2.87112 16.3326 2.92432 16.3257 2.97711C16.3161 3.04508 16.2967 3.09743 16.2928 3.14019C16.2928 3.23145 16.3064 3.33628 16.1776 3.59651C16.1392 3.66831 16.1156 3.73039 16.0961 3.77315C16.0476 3.87798 16.0379 3.89359 15.9951 3.94211C16.0631 3.90371 16.3078 3.75011 16.432 3.77315C16.3466 3.82166 16.2164 3.91689 16.1349 4.04118C16.1544 4.04502 16.2359 4.06063 16.3653 4.04118C16.5809 4.00815 16.8216 3.93046 17.0332 3.94595C17.2644 3.95951 17.1731 3.66831 17.1731 3.66831L16.9064 3.08195L16.4015 2.72675L16.3219 2.74607V2.74595Z" fill="#BE9C44"/>
<path fill-rule="evenodd" clip-rule="evenodd" d="M17.6388 7.14031C17.6388 7.14031 17.4135 6.91503 17.3222 6.14191C17.231 5.3652 17.2504 4.22191 17.2504 4.22191L17.0679 3.77531C17.0679 3.77531 17.0295 3.47823 16.9339 3.36763C16.8383 3.25704 16.6505 3.07055 16.565 2.97928C16.4795 2.88802 16.3825 2.76373 16.3242 2.74427C16.3533 2.69576 16.4835 2.42197 16.9824 2.41813C17.4813 2.41429 17.6352 2.69192 17.6873 2.79291C17.7394 2.89391 17.9747 3.33051 18.0619 4.16251C18.1435 4.99349 18.1475 5.0557 18.1339 5.34306C18.1242 5.50229 18.0717 5.87119 17.9803 6.2653C17.8968 6.59938 17.8056 6.97224 17.6385 7.14108L17.6388 7.14031Z" fill="#A17C34"/>
<path fill-rule="evenodd" clip-rule="evenodd" d="M16.9383 7.80101C17.0134 7.80643 17.0884 7.78951 17.1539 7.75237C17.2257 7.74853 17.4859 7.78156 17.6858 7.52722C17.6994 7.58533 17.7345 7.74277 17.6431 7.88255C17.6917 7.83391 17.7635 7.81458 17.7733 7.80101C17.7771 7.87282 17.8451 8.09413 17.5577 8.63199C17.6353 8.54661 17.7265 8.55045 17.8081 8.54073C17.812 8.64172 17.8663 8.98143 17.7227 9.16409C17.6276 9.28837 17.4722 9.24946 17.4722 9.24946C17.4745 9.22233 17.4745 9.19506 17.4722 9.16793C17.4684 9.11545 17.4489 9.06309 17.4626 9.02815C17.3875 8.99385 17.3191 8.94648 17.2606 8.88825C17.0917 8.72901 16.8723 8.45727 16.8568 8.25529C16.8373 8.03001 17.0393 7.98149 17.0393 7.98149C17.0224 7.96636 17.008 7.94865 16.9966 7.92901C16.9868 7.89612 16.9771 7.84364 16.9383 7.80101Z" fill="#8C6228"/>
<path fill-rule="evenodd" clip-rule="evenodd" d="M15.4381 5.3572C15.4381 5.3572 15.4283 5.34364 15.376 5.40572C15.3857 5.34364 15.3954 5.28527 15.3993 5.22895C15.4241 5.17681 15.4561 5.12845 15.4945 5.08533C15.4653 5.14344 15.4459 5.19592 15.4459 5.19592C15.4459 5.19592 15.5178 5.06191 15.6226 4.98037C15.6944 4.92213 15.7857 4.89499 15.8245 4.84059C15.8672 4.78235 15.8575 4.77263 15.8672 4.7629C15.8672 4.7629 15.9625 4.70082 16.1081 4.51816C16.1275 4.49487 16.1566 4.46965 16.1761 4.44635C16.209 4.43279 16.2867 4.39784 16.378 4.35112C16.4732 4.29877 16.5799 4.22696 16.646 4.19752C16.776 4.13928 16.914 4.14517 16.978 4.05378C17.0265 4.04021 17.0789 3.89455 17.0693 3.77039C17.1411 3.79944 17.51 4.02856 17.6363 4.52955C17.7276 4.88488 17.5644 5.43247 17.4964 5.69666C17.4285 5.96085 17.4189 6.15682 17.3236 6.27714C17.2032 6.4365 16.815 6.66114 16.7197 6.77237C16.6382 6.86364 16.3936 7.09468 16.4032 7.26159C16.4129 7.38588 16.5662 7.45359 16.5994 7.47714C16.6326 7.50069 16.6323 7.52962 16.6945 7.51554C16.7567 7.50146 16.7799 7.47279 16.8052 7.47279C16.8343 7.47663 16.8343 7.48252 16.8478 7.48252C16.8577 7.48222 16.8675 7.48089 16.877 7.47855C16.877 7.47855 16.8673 7.65532 16.4537 7.70895C16.4246 7.71292 16.3955 7.72252 16.3585 7.72841C16.4071 7.70511 16.4362 7.70511 16.4887 7.6333C16.4304 7.62357 16.2634 7.61385 16.2206 7.60028C16.2342 7.57698 16.2789 7.51477 16.3158 7.48572C16.3488 7.45666 16.3119 7.44732 16.2829 7.46242C16.2328 7.49646 16.1848 7.53338 16.1391 7.57301C16.0906 7.61577 16.0478 7.67401 15.9702 7.72661C15.9469 7.64892 15.9507 7.50133 16.0421 7.39458C16.0187 7.39842 15.974 7.46639 15.9314 7.45282C15.9237 7.382 15.9283 7.31037 15.9449 7.24111C15.9682 7.15368 16.0944 7.00034 16.0944 7.00034L16.7041 5.91093L16.8341 5.08571L15.4381 5.35695V5.3572Z" fill="#92723A"/>
<path fill-rule="evenodd" clip-rule="evenodd" d="M15.4063 5.4011C15.4063 5.4011 15.3732 5.4244 15.4393 5.46907C15.4296 5.48264 15.4063 5.53115 15.3771 5.56417C15.3442 5.60257 15.3091 5.62638 15.2955 5.6594C15.2665 5.72737 15.2432 5.77396 15.2432 5.80315C15.2432 5.83233 15.2335 6.0187 15.1519 6.13902C15.1227 6.18177 15.0897 6.25358 15.0664 6.30209C15.0179 6.38747 14.9752 6.45569 14.9654 6.49409C14.9461 6.56206 14.9325 6.74843 14.9325 6.74843C14.9325 6.74843 14.9753 6.69595 14.9908 6.67662C14.9674 6.72514 14.9421 6.77749 14.9053 6.8164C14.9286 6.79694 14.9965 6.74843 15.1111 6.64744C15.2703 6.51355 15.5189 6.28827 15.8219 6.10984C15.7305 6.14286 15.6529 6.14286 15.5908 6.15259C15.6394 6.10408 16.0762 5.59144 16.3053 5.54292C16.3193 5.52528 16.3262 5.50314 16.3248 5.48072L16.1286 5.46139L15.7305 5.54676L15.6724 5.23956L15.4063 5.40072V5.4011Z" fill="#B18E3E"/>
<path fill-rule="evenodd" clip-rule="evenodd" d="M16.0422 7.14654C16.0422 7.14654 15.9897 7.19889 15.9412 7.32907C15.9038 7.29007 15.8718 7.2463 15.846 7.19889C15.7742 7.07857 15.6636 6.9251 15.4053 7.01252C15.4014 6.93099 15.3955 6.88824 15.4053 6.83C15.448 6.8204 15.5781 6.71556 15.7081 6.56209C15.7995 6.45726 15.8849 6.33681 15.9431 6.18347C15.9815 6.15428 16.0479 6.10577 16.1351 6.04945C16.2594 5.96408 16.4089 5.84747 16.4322 5.71742C16.374 5.74072 16.2497 5.79896 16.0632 5.78936C16.1351 5.75633 16.2457 5.72139 16.2321 5.57764C16.2613 5.55819 16.2846 5.54462 16.2846 5.54462C16.2627 5.53732 16.2397 5.53402 16.2166 5.53489C16.2127 5.52132 16.2069 5.502 16.1739 5.5116C16.1409 5.5212 16.1355 5.52132 16.1311 5.53489C16.1176 5.53886 16.0729 5.53489 16.0399 5.55832C16.0069 5.58174 15.9156 5.65918 15.8807 5.67275C15.8942 5.64945 15.9135 5.61464 15.9135 5.61464C15.9135 5.61464 15.8184 5.62424 15.7505 5.65304C15.6262 5.69579 15.4826 5.77348 15.3369 5.84913C15.3505 5.82584 15.3564 5.81073 15.366 5.80638C15.3756 5.80203 15.399 5.79678 15.399 5.79281C15.399 5.78884 15.3894 5.75441 15.3952 5.74046C15.4387 5.6482 15.4901 5.55986 15.5488 5.4764C15.6167 5.385 15.6303 5.25496 15.6303 5.25496L15.9274 5.10545L16.7623 4.91345L17.3041 4.94648L17.2362 5.32126L16.9162 5.9756L16.6424 6.57169L16.3297 6.93688L16.0423 7.14654H16.0422Z" fill="#543E26"/>
<path fill-rule="evenodd" clip-rule="evenodd" d="M17.3867 5.52672C17.3867 5.52672 17.0604 5.93056 16.9691 5.99277C17.0274 5.86848 17.3867 5.12864 17.5167 4.92282C17.4877 4.89952 17.4487 4.89952 17.54 4.53882C17.4624 4.72122 17.4352 4.81645 17.3712 4.86496C17.3072 4.91347 17.2992 4.89799 17.256 4.89799C17.2641 4.88321 17.2675 4.86625 17.2656 4.84947C17.2656 4.84947 16.9918 4.81645 16.8048 4.81645C16.6178 4.81645 16.2476 4.91744 16.0416 4.99898C15.8786 5.06695 15.7873 5.06695 15.7291 5.10957C15.6708 5.15808 15.6378 5.21056 15.6086 5.22413C15.5853 5.2377 15.4747 5.27264 15.4494 5.3095C15.4261 5.3479 15.3873 5.39104 15.3873 5.40077C15.3873 5.4105 15.3776 5.42419 15.4068 5.41434C15.4164 5.4105 15.4883 5.37158 15.5698 5.32307C15.6804 5.26099 15.8144 5.18919 15.9116 5.14643C16.1892 5.03571 16.2766 5.05517 16.4008 5.03187C16.5309 5.00858 16.7173 4.95418 16.8415 4.95418C16.9658 4.95034 17.2008 4.95418 17.2552 4.96391C17.2319 4.98336 17.2125 5.00666 17.2222 5.08819C17.2222 5.11149 17.2027 5.13671 17.1838 5.19302C17.1257 5.35226 17.0149 5.61632 16.9534 5.75034C16.868 5.93274 16.771 6.08621 16.723 6.18131C16.675 6.27642 16.5694 6.52691 16.4648 6.66093C16.3602 6.79494 16.3056 6.87648 16.2728 6.90566C16.24 6.93485 16.0048 7.10752 16.0223 7.16973C16.0651 7.15616 16.335 7.05453 16.531 6.83385C16.7269 6.61318 16.766 6.47853 16.9193 6.35808C17.0727 6.23763 17.1931 6.03578 17.2649 5.86886C17.3251 5.71347 17.3115 5.66496 17.3872 5.5271L17.3867 5.52672Z" fill="#806031"/>
<path fill-rule="evenodd" clip-rule="evenodd" d="M10.3618 8.54569C10.3618 8.54569 10.319 8.72233 10.2219 8.80976C10.1268 8.89526 9.95781 8.96899 9.93848 9.11273C9.91519 9.25635 10.1074 9.32828 10.1074 9.32828C10.1074 9.32828 10.0025 9.50108 10.0025 9.63113C10.0025 9.76515 9.99864 9.79036 10.0122 9.91849C9.99681 9.9284 9.98372 9.94149 9.97381 9.95689C9.97381 9.95689 9.98341 10.0812 10.0786 10.1587C10.1739 10.2363 10.2553 10.283 10.3038 10.2636C10.3112 10.2794 10.3177 10.2956 10.3232 10.3122C10.3232 10.3122 10.3952 10.1297 10.4437 9.97046C10.4922 9.80739 10.535 9.83056 10.5543 9.61116C10.5736 9.39177 10.7847 9.01507 10.7847 9.01507L10.9287 8.69315L10.6938 8.51062L10.3618 8.54556V8.54569Z" fill="#B6903C"/>
<path fill-rule="evenodd" clip-rule="evenodd" d="M10.801 8.85986C10.7526 8.90958 10.7079 8.96281 10.6673 9.0191C10.6052 9.1046 10.5567 9.18217 10.4654 9.21532C10.3742 9.24847 10.3159 9.24822 10.3217 9.33961C10.3274 9.431 10.4129 9.46966 10.4615 9.51625C10.5139 9.56476 10.5567 9.6463 10.5334 9.73769C10.5624 9.72412 10.6149 9.7085 10.6634 9.60367C10.712 9.49884 11.0513 8.85999 11.0513 8.85999H10.801V8.85986Z" fill="#685026"/>
<path fill-rule="evenodd" clip-rule="evenodd" d="M12.1343 7.3862C12.1343 7.3862 12.1633 7.30864 12.1343 7.25232C12.1051 7.19408 11.9284 7.17462 11.841 7.10857C11.7497 7.0406 11.639 6.99337 11.5478 7.0232C11.5613 6.99017 11.6157 6.91824 11.5711 6.90275C11.5283 6.88918 11.3692 6.96099 11.3264 6.99401C11.2837 7.02704 11.1865 7.06582 11.1672 7.08924C11.1479 7.11267 11.1147 7.15721 11.0953 7.13776C11.0758 7.12419 11.0662 7.08924 11.0332 7.10857C11.0002 7.1279 10.8412 7.25808 10.8119 7.33385C10.7826 7.40963 10.7167 7.57859 10.5186 7.77072C10.3206 7.96284 10.2351 8.08726 10.2934 8.15907C10.3516 8.23088 10.3789 8.17852 10.3886 8.2406C10.3961 8.30155 10.3928 8.36333 10.3789 8.42313C10.3556 8.52412 10.3168 8.61923 10.3691 8.63868C10.5031 8.68144 10.6333 8.60028 10.6624 8.62512C10.7206 8.67747 10.6294 8.86588 10.7672 8.90275C10.9071 8.94115 11.045 8.86972 11.045 8.86972L11.5536 8.59593L12.043 8.33776L12.2934 7.84252L12.1591 7.42896L12.1335 7.3862H12.1343Z" fill="#D4B968"/>
<path fill-rule="evenodd" clip-rule="evenodd" d="M11.649 8.56916C11.649 8.56916 11.5635 8.43911 11.6685 8.32442C11.7735 8.20973 11.9228 8.16135 11.9811 8.08954C11.97 8.07586 11.9551 8.06576 11.9383 8.06048C11.977 7.9913 12.036 7.93567 12.1073 7.90112C12.0782 7.87207 12.0393 7.84877 11.9967 7.84877C11.9015 7.84877 11.8431 7.90701 11.7558 7.90701C11.6704 7.90701 11.6607 7.86426 11.6607 7.86426C11.6607 7.86426 11.8044 7.85069 11.7907 7.78656C11.7772 7.71859 11.7523 7.71859 11.7523 7.71859C11.7523 7.71859 12.03 7.60339 12.0785 7.54195C12.127 7.48051 12.1212 7.40794 12.131 7.37888C12.1639 7.37888 12.3561 7.27789 12.4338 7.32064C12.5115 7.36339 12.4571 7.47987 12.4571 7.47987C12.4571 7.47987 12.6923 7.3031 12.8121 7.12979C12.9169 7.13952 12.9657 7.05798 13.0425 7.05798C13.1377 7.05798 13.2872 7.18803 13.3163 7.46566C13.3357 7.6249 13.3648 7.71616 13.3357 7.99776C13.3221 8.157 13.326 8.49696 13.3741 8.66567C13.407 8.79969 13.4847 8.78612 13.4847 8.78612C13.4728 8.82695 13.4492 8.8634 13.4167 8.89095C13.3643 8.93946 13.3585 9.06772 13.3643 9.11623C13.372 9.1517 13.3817 9.1867 13.3934 9.22106C13.3934 9.22106 13.3314 9.29287 13.3157 9.34151C13.3022 9.39002 13.2382 9.42305 13.1915 9.42305C13.1447 9.42305 13.1682 9.41908 13.1061 9.42305C13.044 9.42702 13.0245 9.43662 12.9856 9.42305C12.9467 9.40948 12.9177 9.39386 12.9333 9.26945C12.9468 9.14516 12.4537 8.85588 12.4537 8.85588L11.6473 8.56852L11.649 8.56916Z" fill="#CCA849"/>
<path fill-rule="evenodd" clip-rule="evenodd" d="M10.7262 9.7965C10.7262 9.7965 10.9029 10.0315 11.6291 10.0315C11.9747 10.0315 12.0952 9.99848 12.1667 9.97903C12.2444 9.95957 12.5356 9.84514 12.8289 9.4994C13.0929 9.18683 13.0347 9.0587 13.0347 9.0587L12.8811 9.0354L12.3819 9.10337L10.9048 9.7325L10.7256 9.7965H10.7262Z" fill="#585136"/>
<path fill-rule="evenodd" clip-rule="evenodd" d="M11.2697 9.85598C11.2697 9.85598 10.6406 9.99588 10.6406 9.5978C10.6406 9.20945 11.029 8.80164 11.1261 8.72983C11.2271 8.6579 11.4679 8.57623 11.4679 8.57623H12.0485L12.1591 8.86948L12.1106 9.50244L11.2697 9.85585V9.85598Z" fill="#252211"/>
<path fill-rule="evenodd" clip-rule="evenodd" d="M11.8517 8.69286C11.8517 8.69286 11.7314 8.58214 11.4576 8.73126C11.1838 8.88038 10.9624 9.19206 10.9488 9.47507C10.9353 9.72544 11.1547 9.91193 11.4964 9.92166C11.7508 9.93126 11.9042 9.9022 11.9819 9.88326C11.9625 9.85996 11.8615 9.73375 11.8615 9.73375L11.8519 8.69299L11.8517 8.69286Z" fill="#C3B378"/>
<path fill-rule="evenodd" clip-rule="evenodd" d="M11.7321 8.75192C11.7321 8.75192 11.7031 8.72862 11.6169 8.77521C11.5451 8.81361 11.4403 8.91512 11.3588 8.98693C11.3063 9.02968 11.2733 9.04901 11.2436 9.08203C11.1231 9.22577 11.0221 9.46078 11.0805 9.57726C11.1389 9.69374 11.331 9.82776 11.8203 9.73649L11.7307 8.75205L11.7321 8.75192Z" fill="#E6D89C"/>
<path fill-rule="evenodd" clip-rule="evenodd" d="M11.5736 8.99843C11.5736 8.99843 11.4959 9.11888 11.4959 9.31114C11.4959 9.50723 11.6066 9.81981 12.0144 9.8431C12.327 9.86256 12.5367 9.39267 12.7639 9.21014C12.9367 9.07037 13.0415 9.0664 13.0415 9.0664C13.0415 9.0664 12.8648 8.8744 12.393 8.6257C11.927 8.3752 11.4046 8.34218 11.1211 8.72669C11.2551 8.71696 11.6881 8.60624 11.6881 8.60624L11.8998 8.67421L11.5736 8.99856V8.99843Z" fill="#252211"/>
<path fill-rule="evenodd" clip-rule="evenodd" d="M12.1789 9.24625C12.1653 9.21719 12.1556 9.17828 12.2119 9.16868C12.2683 9.15908 12.2935 9.16471 12.3129 9.20708C12.3324 9.24945 12.3513 9.28477 12.3225 9.30231C12.2935 9.3178 12.2177 9.30231 12.1788 9.24599L12.1789 9.24625ZM12.0876 8.97245C12.0876 8.97245 12.0682 8.98602 12.0779 8.95889C12.0818 8.92599 12.1071 8.86762 12.1692 8.88132C12.2313 8.89501 12.2178 8.96285 12.2076 8.98231C12.1973 9.00177 12.1455 9.03466 12.1066 9.02071C12.1017 9.01945 12.0971 9.01704 12.0933 9.01369C12.0894 9.01033 12.0865 9.00612 12.0846 9.00139C12.0827 8.99666 12.0819 8.99156 12.0824 8.98649C12.0828 8.98141 12.0844 8.97652 12.0871 8.9722L12.0876 8.97245Z" fill="#6F674D"/>
<path fill-rule="evenodd" clip-rule="evenodd" d="M6.83496 9.1026C6.83496 9.1026 6.98856 9.2178 7.16699 9.21332C7.34363 9.20935 7.57083 9.02695 7.67566 8.91035C7.73774 8.84238 7.79086 8.77057 7.84846 8.71425C7.8971 8.66574 7.93 8.64244 7.95329 8.60942C7.98632 8.57102 8.02126 8.49883 8.0388 8.4754C7.99605 8.50843 7.93397 8.56679 7.86984 8.60558C7.80776 8.64398 7.67374 8.71617 7.61934 8.73563C7.56699 8.75508 7.02325 9.04283 7.02325 9.04283L6.83496 9.1026Z" fill="#AC924C"/>
<path fill-rule="evenodd" clip-rule="evenodd" d="M7.07617 7.66491C7.07617 7.66491 7.16155 7.60667 7.32667 7.56968C7.4859 7.53128 7.80629 7.50171 7.80629 7.50171L8.07035 7.61691L8.17519 8.01499L7.98318 8.42869L7.73858 8.58228L7.46081 8.13569L7.07681 7.66568L7.07617 7.66491Z" fill="#9F8E57"/>
<path fill-rule="evenodd" clip-rule="evenodd" d="M6.72909 8.02126L6.6377 8.08948C6.6377 8.08948 6.66112 8.04673 6.68045 7.91668C6.69977 7.78663 6.80089 7.47009 6.94848 7.28756C7.09606 7.10503 7.09222 7.11476 7.09222 7.11476C7.07864 7.11228 7.06469 7.11272 7.05129 7.11605C7.03789 7.11938 7.02536 7.12553 7.01453 7.13409C7.03398 7.09108 7.15827 6.93748 7.28256 6.86068C7.40684 6.78388 7.45536 6.75969 7.5854 6.82228C7.71545 6.88487 7.74848 6.91739 7.84371 6.91355C7.93894 6.90971 8.02035 6.80871 8.02035 6.80871C8.02035 6.80871 8.0398 6.87079 7.96799 7.01454C7.89619 7.15828 7.61267 7.4514 7.61267 7.4514L7.02233 7.85524L6.72909 8.02164V8.02126Z" fill="#EAC970"/>
<path fill-rule="evenodd" clip-rule="evenodd" d="M7.1636 7.6198C7.1636 7.6198 7.59087 7.67804 7.72091 7.55772C7.72475 7.57129 7.74037 7.57129 7.74037 7.58102C7.73932 7.58835 7.73591 7.59514 7.73064 7.60035C7.74479 7.59809 7.75907 7.59681 7.77339 7.59651C7.79049 7.6016 7.80809 7.60486 7.82588 7.60624C7.8402 7.60593 7.85449 7.6046 7.86863 7.60227C7.86728 7.61192 7.864 7.6212 7.85898 7.62956C7.85397 7.63791 7.84732 7.64517 7.83944 7.65091C7.8589 7.65091 7.87784 7.65475 7.87784 7.67023C7.87784 7.68572 7.88168 7.73244 7.85839 7.74217C7.83909 7.74751 7.81854 7.74611 7.80015 7.7382C7.80169 7.77497 7.81167 7.81088 7.82933 7.84316C7.86773 7.91497 7.94965 7.99676 8.05973 7.97321C8.05973 7.97321 8.11785 8.11298 7.87324 8.42364C7.84034 8.46639 7.80527 8.52463 7.76264 8.57314C7.7458 8.60985 7.73293 8.64826 7.72424 8.6877C7.72424 8.6877 8.13794 8.52847 8.25634 8.16534C8.37679 7.80028 8.40009 7.44112 8.37679 7.10525C8.37282 7.01001 8.35734 6.94217 8.33404 6.89353C8.2758 6.77309 8.1126 6.79254 8.04668 6.86051C7.95144 6.95574 7.79221 7.19254 7.5709 7.35561C7.34562 7.51868 7.33602 7.54761 7.16309 7.6198H7.1636Z" fill="#D7BC6B"/>
<path fill-rule="evenodd" clip-rule="evenodd" d="M6.64415 8.13618C6.64415 8.13618 6.56261 8.1847 6.51986 8.36658C6.47711 8.55295 6.55826 8.78015 6.60524 8.85195C6.65221 8.92376 6.75884 9.11998 6.98002 9.12971C7.03477 9.12942 7.08891 9.11819 7.13925 9.09669C7.21647 9.06128 7.28889 9.01625 7.3548 8.96267C7.45004 8.89087 7.5276 8.82879 7.51788 8.8229C7.49458 8.81317 6.93151 8.34713 6.93151 8.34713L6.7198 8.11084L6.64402 8.13644L6.64415 8.13618Z" fill="#585136"/>
<path fill-rule="evenodd" clip-rule="evenodd" d="M7.18137 8.91894C7.18137 8.91894 7.29593 8.90934 7.3639 8.86659C7.43186 8.82384 6.96582 8.36176 6.96582 8.36176L6.99884 8.86096L7.18137 8.91894Z" fill="#453A25"/>
<path fill-rule="evenodd" clip-rule="evenodd" d="M6.68028 8.10734C6.68028 8.10734 6.62204 8.21806 6.62204 8.24724C6.61231 8.34235 6.6415 8.64135 6.66479 8.73646C6.68809 8.83745 6.81429 8.99079 6.97749 8.99079C7.07835 8.99079 7.21826 8.92871 7.21826 8.91322C7.21826 8.89377 7.07451 8.87483 7.03573 8.80251C7.01243 8.76411 7.00271 8.66862 6.99733 8.57211C6.99349 8.51003 6.99349 8.44206 7.01679 8.41851C7.06927 8.36027 7.07887 8.19322 7.07887 8.19322L7.26523 7.84698H7.02011L6.72687 8.02951L6.68028 8.10734Z" fill="#84754B"/>
<path fill-rule="evenodd" clip-rule="evenodd" d="M6.61133 8.2149C6.61133 8.2149 6.80333 7.96056 6.97638 7.90219C7.14944 7.84383 7.22688 7.8789 7.22688 7.8789L7.12589 8.1372L6.98214 8.29643L6.99187 8.37797C6.99187 8.37797 6.96845 8.59352 7.11219 8.74303C7.25594 8.89253 7.36269 8.88677 7.4249 8.88677C7.4871 8.88677 7.66566 8.83429 7.75693 8.61874C7.83846 8.41688 7.90643 8.15794 7.74336 7.89835C7.584 7.64005 7.30253 7.63007 7.24813 7.63007C7.19373 7.63007 6.76659 7.65144 6.61133 8.21451V8.2149Z" fill="#252211"/>
<path fill-rule="evenodd" clip-rule="evenodd" d="M11.5413 9.07509C11.4695 9.04206 11.5375 8.8402 11.6093 8.77799C11.6811 8.71579 11.7723 8.6441 11.9317 8.63425C11.9898 8.63041 12.0461 8.66727 12.0365 8.70619C12.023 8.77799 11.922 8.87899 11.8307 8.9508C11.7045 9.04987 11.6228 9.11195 11.5413 9.07509Z" fill="#F7F7E7"/>
<path fill-rule="evenodd" clip-rule="evenodd" d="M7.66042 7.97833C7.7129 7.97449 7.78087 8.01673 7.79444 8.07357C7.80801 8.13565 7.76141 8.25994 7.66042 8.25994C7.57889 8.25994 7.53613 8.15894 7.53613 8.12989C7.53705 8.10599 7.54373 8.08268 7.55559 8.06192C7.55943 8.05603 7.56916 7.98806 7.66042 7.97833Z" fill="#F8F6DE"/>
<path fill-rule="evenodd" clip-rule="evenodd" d="M6.89938 8.02344C6.89938 8.02344 6.76537 8.08552 6.70329 8.21544C6.65893 8.31137 6.64551 8.41873 6.66489 8.52264C6.67461 8.57115 6.72313 8.69147 6.75615 8.73422C6.78917 8.77697 6.83385 8.80616 6.86687 8.80219C6.89989 8.79822 6.96773 8.71093 6.96773 8.65857C6.96773 8.60622 6.9717 8.38478 7.0357 8.26433C7.09202 8.14401 6.89977 8.02357 6.89977 8.02357L6.89938 8.02344Z" fill="#D4C38B"/>
<path fill-rule="evenodd" clip-rule="evenodd" d="M6.9241 8.00931C6.9008 8.02288 6.86202 8.04233 6.87162 8.06755C6.88134 8.09085 6.96288 8.10595 6.99206 8.16278C7.02509 8.22102 7.02509 8.2831 7.01536 8.31229C7.04072 8.30024 7.06374 8.28377 7.08333 8.26365C7.12608 8.21513 7.17843 8.14921 7.2231 8.14921C7.25229 8.14921 7.28134 8.16278 7.30861 8.16278C7.35136 8.16278 7.39398 8.14921 7.39987 8.10454C7.40947 8.0463 7.31834 7.99382 7.26586 8.00355C7.27558 7.96515 7.28915 7.90845 7.2464 7.86953C7.20365 7.83062 7.06976 7.89872 7.04057 7.91817C7.01139 7.93763 6.9241 8.00944 6.9241 8.00944V8.00931Z" fill="#E2D59D"/>
<path fill-rule="evenodd" clip-rule="evenodd" d="M10.0072 12.0863L10.2946 12.0015L10.3761 12.0597C10.3761 12.0597 10.4342 12.184 10.5256 12.1995C10.4964 12.2616 10.4206 12.3147 10.4246 12.3587C10.4286 12.4027 10.4674 12.4364 10.4674 12.4364C10.4674 12.4364 10.209 12.8635 10.7179 13.294C10.5974 13.3425 10.4441 13.4092 10.3625 13.4476C10.4206 13.4612 10.5449 13.486 10.5974 13.5331C10.6499 13.5802 10.6499 13.5952 10.6984 13.6244C10.7469 13.6536 10.776 13.6923 10.7664 13.7098C10.7333 13.6903 10.6226 13.6322 10.6033 13.6865C10.584 13.7407 10.1237 13.7195 10.1237 13.7195L9.34697 13.869C9.34697 13.869 9.37602 13.7913 9.29449 13.7195C9.19938 13.6341 9.0829 13.7233 8.95862 13.6282C8.79554 13.5039 8.78966 13.3602 8.7373 13.3059C8.78966 13.2729 8.89654 13.2244 9.15087 13.1907C9.14114 13.1713 9.10812 13.113 9.12758 13.0607C9.15087 12.9927 9.2479 12.9499 9.21884 12.8687C9.26159 12.8589 9.28092 12.8589 9.3878 12.7249C9.48879 12.5909 9.55087 12.5618 9.62857 12.5521C9.70627 12.5424 9.75286 12.5521 9.8966 12.4181C9.99747 12.323 9.96457 12.2415 9.96457 12.2415C9.96457 12.2415 10.0305 12.2201 10.0073 12.0861L10.0072 12.0863Z" fill="#CBAC5A"/>
<path fill-rule="evenodd" clip-rule="evenodd" d="M9.16451 12.1332C9.16835 12.1137 9.18397 12.104 9.2888 12.1137C9.39363 12.1235 10.0577 12.0517 10.2383 12.0419C10.4208 12.0284 11.0635 12.038 11.3762 12.104C11.6889 12.1701 12.0053 12.2478 12.1587 12.2866C12.3123 12.3293 12.3607 12.3447 12.3548 12.3641C12.3509 12.3836 12.3164 12.4025 12.2965 12.3972C12.2772 12.3933 11.7684 12.2379 11.6112 12.2051C11.454 12.1724 10.9102 12.0847 10.6128 12.0899C10.3352 12.0939 10.2245 12.0861 9.9896 12.1132C9.75459 12.1424 9.36624 12.1812 9.24976 12.1657C9.13456 12.1521 9.15837 12.1521 9.16426 12.1327L9.16451 12.1332Z" fill="#D6BC6F"/>
<path fill-rule="evenodd" clip-rule="evenodd" d="M10.7245 13.6559C10.7245 13.6559 11.1226 13.8715 11.2663 14.1356C11.3712 14.3317 11.2043 14.4288 11.2043 14.4288C11.2043 14.4288 11.4295 14.4288 11.4004 14.5531C11.3868 14.6307 11.012 14.8403 10.7615 14.951C10.5072 15.0618 10.5169 15.056 10.3926 15.0753C10.2722 15.0948 9.94206 15.0369 9.87409 15.1336C9.80612 15.2302 9.83569 15.3298 9.85463 15.3453C9.87409 15.3588 10.0314 15.3783 10.0314 15.3783C10.0314 15.3783 9.99838 15.4696 9.67223 15.4793C9.34609 15.489 9.26443 15.5122 9.24497 15.5473C9.22551 15.5802 9.30705 15.5608 9.45668 15.5857C9.60619 15.609 9.81585 15.6241 9.81585 15.6241C9.81585 15.6241 9.74788 15.6823 9.57124 15.7289C9.36926 15.7812 9.05271 15.8299 8.95761 15.8881C9.00612 15.9211 9.07806 15.9697 9.11121 15.9735C9.02967 15.993 8.91499 16.0357 8.89566 16.0512C8.92471 16.0706 8.96363 16.0939 8.96363 16.0939C8.96363 16.0939 8.80043 16.29 8.70532 16.3387C8.61022 16.3873 8.06263 16.6415 7.87422 16.593C7.40433 16.4687 7.34609 15.9542 7.23153 15.9154C7.05873 15.8571 6.97719 15.9735 6.82372 15.892C6.89169 15.8434 6.92868 15.8144 7.00049 15.7814C6.92279 15.743 6.52087 15.4881 6.52087 15.4881C6.47884 15.3965 6.43219 15.3071 6.3811 15.2202C6.3034 15.0862 6.1891 14.9075 6.10334 14.7502C5.91697 14.4046 5.90724 14.2454 5.73828 14.0493C5.76747 14.0109 5.86833 14.0163 5.86833 14.0163L7.28401 14.4823L9.79422 14.555L10.447 13.623L10.7247 13.6561L10.7245 13.6559Z" fill="#DFC677"/>
<path fill-rule="evenodd" clip-rule="evenodd" d="M7.00488 15.0755C7.02003 15.0923 7.03769 15.1067 7.05724 15.1182C7.10588 15.1512 7.17768 15.1901 7.22619 15.2483C7.24565 15.2192 7.29416 15.1667 7.37979 15.2483C7.46543 15.3298 7.57179 15.2717 7.63797 15.291C7.70594 15.3144 7.70978 15.324 7.70978 15.324C7.70978 15.324 7.74818 15.291 7.83407 15.2561C7.88655 15.2366 7.94863 15.223 8.01659 15.2037C8.07867 15.1901 8.14664 15.1707 8.19336 15.1707C8.23611 15.1997 8.38946 15.3627 9.00501 15.1222C9.58562 14.8969 9.7195 14.8717 9.81665 14.9065C9.82638 14.8832 9.83611 14.8385 9.98561 14.8444C9.98561 14.7823 9.86133 14.5706 9.86133 14.5706L9.17589 14.3358H8.80098L7.67675 14.5416L7.05378 14.897L7.00527 15.0762L7.00488 15.0755Z" fill="#C4A859"/>
<path fill-rule="evenodd" clip-rule="evenodd" d="M6.62695 14.688C6.62695 14.688 6.64052 14.7928 6.79591 14.9036C6.94951 15.0142 6.99777 15.0802 6.99777 15.0802C6.99777 15.0802 7.02695 15.0418 7.05025 15.0026C7.07354 14.9599 7.093 14.9114 7.13178 14.8978C7.20948 14.8648 7.38612 14.9269 7.42503 14.9171C7.45806 14.9075 7.44833 14.8396 7.48327 14.8396C7.56481 14.8356 7.61716 14.8919 7.64634 14.8919C7.67553 14.8919 7.74721 14.8881 7.75694 14.8726C7.76666 14.8571 7.7705 14.6958 7.88122 14.6181C8.00167 14.5327 8.14926 14.5696 8.18842 14.5891C8.18842 14.6181 8.19226 14.6901 8.26996 14.6939C8.34766 14.6977 8.35534 14.6842 8.42356 14.7075C8.49178 14.7308 8.57306 14.7036 8.60993 14.8181C8.64295 14.8085 8.72065 14.7987 8.70119 14.688C8.73959 14.659 8.77313 14.6395 8.85479 14.5249C8.87425 14.4959 8.90714 14.4629 8.93249 14.4201C9.00045 14.4201 9.08199 14.4065 9.19066 14.5016C9.15764 14.5249 9.13818 14.54 9.12858 14.5637C9.157 14.5919 9.18296 14.6224 9.20615 14.655C9.23533 14.6934 9.25479 14.7405 9.29165 14.7502C9.37319 14.7735 9.50721 14.7405 9.65671 14.7502C9.80045 14.7599 9.92077 14.8123 9.97325 14.8453C9.99271 14.8357 9.99271 14.8318 10.0412 14.8415C10.0897 14.8512 10.1266 14.855 10.0742 14.793C10.1033 14.8065 10.1363 14.8357 10.1655 14.8065C10.1947 14.7774 10.2179 14.7347 10.2994 14.725C10.3809 14.7153 10.4101 14.7288 10.4431 14.6435C10.4859 14.5386 10.3383 14.5386 10.3383 14.5386C10.3383 14.5386 10.4063 14.4764 10.4821 14.3949C10.5733 14.3095 10.6781 14.1988 10.7034 14.0629C10.7461 13.8124 10.5015 13.7795 10.5015 13.7795L9.31508 14.1445L7.86458 14.0726L6.62772 14.6881L6.62695 14.688Z" fill="#927D49"/>
<path fill-rule="evenodd" clip-rule="evenodd" d="M5.56228 11.2578C5.56228 11.2578 5.52388 11.3063 5.5002 11.4209C5.47652 11.5354 5.48663 11.5219 5.46718 11.6034C5.44772 11.6849 5.20875 12.4966 5.29835 12.7704C5.38795 13.0442 5.54308 13.1452 5.64011 13.3665C5.65956 13.415 5.67851 13.4442 5.68862 13.4869C5.72164 13.6306 5.69259 13.7413 5.73137 13.885C5.74494 13.9335 5.78001 13.9899 5.83236 14.0481C5.94756 14.1684 6.13534 14.283 6.21636 14.3645C6.3308 14.485 6.494 14.7297 6.70174 14.7529C6.81246 14.7664 6.96977 14.7198 7.09982 14.6423C7.21502 14.5703 7.28619 14.4695 7.40702 14.4119C7.4924 14.3691 7.58366 14.3536 7.6652 14.3342C7.83416 14.3011 7.98763 14.2958 8.07889 14.3147C8.21867 14.3439 8.54878 14.4449 8.7317 14.4449C8.87462 14.4426 9.01675 14.423 9.15499 14.3867C9.43262 14.3051 9.7685 14.1652 9.98994 14.1031C10.12 14.0647 10.2248 14.0546 10.3317 14.0313C10.5142 13.9886 10.6676 13.9303 10.755 13.8196C10.6968 13.7516 10.6249 13.6468 10.2365 13.6506C9.79576 13.6604 9.28696 13.905 9.03646 13.9439C8.78597 13.9828 8.6773 14.0157 8.39762 13.9147C8.12344 13.8127 8.11435 13.7452 8.11435 13.7452C8.11435 13.7452 7.82648 13.5439 7.70603 13.0306C7.58558 12.5173 7.70603 12.1433 8.01873 11.7879C8.10027 11.6966 8.08081 11.6151 8.08081 11.6151C8.08081 11.6151 8.28664 11.3374 8.23032 11.0775C8.16824 10.8191 7.77016 10.8716 7.77016 10.8716L5.56241 11.2578H5.56228Z" fill="#6E6342"/>
<path fill-rule="evenodd" clip-rule="evenodd" d="M5.8927 12.1223C5.87558 12.1544 5.86753 12.1907 5.86941 12.2271C5.87325 12.2794 5.88886 12.3474 6.04605 12.5009C6.18006 12.6348 6.15088 12.7843 6.15088 12.7843C6.15088 12.7843 6.21833 12.7978 6.40137 12.7122C6.54512 12.6442 6.59337 12.7647 6.59337 12.7647C6.63522 12.7427 6.68057 12.7283 6.72739 12.7219C6.76981 12.718 6.81087 12.7049 6.84771 12.6835C6.84771 12.6835 7.01667 12.8563 7.16425 12.9379C7.29827 13.0098 7.37597 13.0583 7.44201 13.0098C7.50409 12.9671 7.50409 12.8796 7.50013 12.8408C7.48472 12.805 7.46522 12.7712 7.44201 12.7399C7.39926 12.6778 7.33129 12.6058 7.32681 12.5479C7.31709 12.414 7.42781 12.2546 7.40438 12.2158C7.38096 12.177 7.29379 12.1673 7.07824 12.245C6.85501 12.3187 5.89181 12.1226 5.89181 12.1226L5.8927 12.1223Z" fill="#39331F"/>
<path fill-rule="evenodd" clip-rule="evenodd" d="M6.4072 12.9867C6.4072 12.9867 6.29661 12.8819 6.3354 12.3731C6.38235 12.3724 6.42923 12.377 6.47517 12.3867C6.47517 12.3867 6.53546 12.7809 6.4072 12.9867Z" fill="#292311"/>
<path fill-rule="evenodd" clip-rule="evenodd" d="M5.61479 10.8721C5.63023 10.8607 5.64454 10.8478 5.65755 10.8337C5.61915 10.9055 5.44187 11.1929 5.58561 11.6454C5.72935 12.0958 6.09044 12.4317 6.53511 12.4473C6.97979 12.4629 7.21352 12.2453 7.48078 11.9192C7.58561 11.7891 7.70606 11.6259 7.81281 11.5153C7.97205 11.3424 8.09633 11.2939 8.09633 11.127C8.09633 10.7852 7.74677 10.6317 7.2322 10.4784C6.71764 10.325 6.25351 10.344 6.01275 10.4489C5.77787 10.5634 5.67687 10.6838 5.61467 10.8722L5.61479 10.8721Z" fill="#252211"/>
<path fill-rule="evenodd" clip-rule="evenodd" d="M7.26699 13.143L7.30538 13.1235C7.30538 13.1235 7.31498 12.9699 7.37719 12.974C7.43927 12.9837 7.46845 13.0654 7.46257 13.0945C7.45873 13.1235 7.44324 13.1722 7.38103 13.1663C7.2995 13.1682 7.2666 13.143 7.2666 13.143H7.26699Z" fill="#3F3824"/>
<path fill-rule="evenodd" clip-rule="evenodd" d="M7.09668 12.49C7.09668 12.49 7.13508 12.4764 7.18206 12.523C7.22046 12.523 7.38788 12.5036 7.44036 12.5366C7.49284 12.5696 7.50833 12.5987 7.50833 12.5987C7.50833 12.5987 7.31223 12.6414 7.20535 12.5987C7.09668 12.5618 7.09668 12.49 7.09668 12.49Z" fill="#2D2815"/>
<path fill-rule="evenodd" clip-rule="evenodd" d="M7.96171 12.521C7.96171 12.5113 7.85688 12.4395 7.74616 12.4161C7.72671 12.4122 7.72274 12.4258 7.70776 12.4258C7.69803 12.4219 7.69419 12.3928 7.69419 12.3928L7.63122 12.4259C7.63122 12.4259 7.62149 12.4395 7.65452 12.4643C7.68357 12.4876 7.73221 12.5071 7.74578 12.5458C7.75935 12.5846 7.75935 12.5982 7.76523 12.6041C7.76907 12.6079 7.83704 12.6041 7.87006 12.5846C7.90309 12.5652 7.96529 12.5334 7.96133 12.5206L7.96171 12.521Z" fill="#82764F"/>
<path fill-rule="evenodd" clip-rule="evenodd" d="M6.97559 12.917C6.97559 12.917 6.99491 12.7831 7.12509 12.7772C7.25898 12.7675 7.28432 12.8975 7.28432 12.8975L7.20663 12.9752C7.20663 12.9733 7.14839 12.8918 6.97623 12.917H6.97559Z" fill="#2D2816"/>
<path fill-rule="evenodd" clip-rule="evenodd" d="M7.82081 12.3402C7.82081 12.3402 7.74888 12.4179 7.58977 12.4412C7.5762 12.4217 7.54702 12.3829 7.58977 12.3208C7.63252 12.2588 7.68104 12.2393 7.72955 12.2586C7.75095 12.2621 7.77092 12.2716 7.78709 12.2861C7.80326 12.3005 7.81496 12.3193 7.82081 12.3402Z" fill="#574F35"/>
<path fill-rule="evenodd" clip-rule="evenodd" d="M8.1159 12.4345C8.11987 12.415 8.1063 12.4112 8.1159 12.4014C8.1255 12.3917 8.17811 12.3724 8.18784 12.382C8.19168 12.386 8.18784 12.4014 8.18784 12.4204C8.18784 12.4393 8.18784 12.4588 8.17811 12.4727C8.16455 12.4922 8.12576 12.5019 8.1063 12.4962C8.08685 12.4904 8.08301 12.4631 8.08301 12.4578C8.09261 12.4539 8.1159 12.4442 8.1159 12.4345ZM8.44743 12.2248C8.44743 12.2151 8.48046 12.1956 8.49992 12.1956C8.52897 12.1956 8.52897 12.2189 8.53294 12.2248C8.54254 12.2286 8.54254 12.2208 8.55227 12.2384C8.562 12.2559 8.57569 12.2869 8.56584 12.3063C8.55598 12.3258 8.51733 12.3392 8.50772 12.3354C8.49416 12.3257 8.4514 12.2384 8.44743 12.2248Z" fill="#82764F"/>
<path fill-rule="evenodd" clip-rule="evenodd" d="M7.78223 12.4774C7.78223 12.4774 7.82498 12.487 7.88322 12.5356C7.86377 12.5492 7.83458 12.5646 7.83458 12.5646C7.83458 12.5646 7.83074 12.52 7.78223 12.4772V12.4774Z" fill="#6E6342"/>
<path fill-rule="evenodd" clip-rule="evenodd" d="M7.68903 12.0445C7.67931 12.0349 7.71809 12.0116 7.74139 12.0154C7.76468 12.0193 7.77441 12.0349 7.79963 12.0387C7.82484 12.0426 7.82881 12.029 7.83803 12.0193C7.84724 12.0095 7.88078 12.0154 7.88654 12.0193C7.89013 12.0235 7.89338 12.0281 7.89627 12.0328C7.89667 12.0254 7.8986 12.0182 7.90193 12.0116C7.90525 12.005 7.90991 11.9992 7.9156 11.9944C7.92304 11.989 7.93163 11.9852 7.94072 11.9836C7.94981 11.9819 7.95916 11.9823 7.96807 11.9847C7.97191 11.9983 7.99137 12.0468 7.98753 12.0565C7.98369 12.0662 7.92545 12.0799 7.9156 12.0701C7.92532 12.0935 7.96808 12.142 7.97384 12.1516C7.9796 12.1612 7.93108 12.1846 7.91176 12.1808C7.88462 12.1789 7.71758 12.0817 7.68852 12.0449L7.68903 12.0445ZM7.94337 11.7222C7.93978 11.7124 7.9329 11.7042 7.92392 11.6989C7.91035 11.695 7.86567 11.6989 7.86567 11.7222C7.86567 11.7455 7.90407 11.8758 7.94721 11.9436C7.99585 12.0116 8.02875 12.0678 8.06177 12.0834C8.07214 12.0881 8.08391 12.0887 8.09472 12.0851C8.10552 12.0815 8.11456 12.0739 8.12001 12.0639C8.12385 12.0542 8.13358 11.9824 8.12974 11.8134C8.1259 11.6445 8.12001 11.4814 8.11028 11.4717C8.10056 11.462 8.06177 11.4621 8.0482 11.4814C8.03464 11.5007 7.94721 11.6931 7.94324 11.7222H7.94337Z" fill="#585136"/>
<path fill-rule="evenodd" clip-rule="evenodd" d="M7.76847 12.7252C7.76847 12.7252 7.7005 12.6825 7.63446 12.7117C7.57238 12.7409 7.57622 12.8554 7.57622 12.8554C7.59018 12.8609 7.60527 12.8629 7.62018 12.8612C7.63508 12.8595 7.64934 12.8542 7.66172 12.8457C7.70447 12.8166 7.75874 12.7681 7.76847 12.7254V12.7252Z" fill="#574F35"/>
<path fill-rule="evenodd" clip-rule="evenodd" d="M7.89485 12.8758C7.89101 12.8374 7.85645 12.8374 7.85645 12.8176C7.85882 12.8081 7.86432 12.7997 7.87205 12.7937C7.87978 12.7877 7.88929 12.7845 7.89907 12.7846C7.91853 12.7846 7.93747 12.8079 7.96128 12.823C7.98457 12.8366 8.01952 12.8614 8.02336 12.891C8.0272 12.9205 7.98496 13.0015 7.93798 13.0015C7.89101 13.0015 7.90496 12.9141 7.89523 12.8753L7.89485 12.8758ZM8.26963 12.8234C8.26963 12.8234 8.19193 12.8467 8.19769 12.8234C8.20345 12.8001 8.22112 12.7943 8.24633 12.7943C8.25915 12.7809 8.27638 12.7726 8.29485 12.7709C8.30541 12.7704 8.31578 12.7738 8.3239 12.7806C8.3239 12.7806 8.37638 12.7573 8.39187 12.7709C8.40736 12.7845 8.39584 12.7845 8.40544 12.8001C8.41766 12.8174 8.42568 12.8373 8.42886 12.8583C8.42886 12.8738 8.37062 12.9068 8.3239 12.9011C8.26963 12.8894 8.27923 12.8331 8.26963 12.8234ZM8.72198 12.7359C8.72198 12.7359 8.74528 12.7495 8.72595 12.7651C8.71238 12.7787 8.64441 12.8035 8.58605 12.8079C8.52781 12.8079 8.47545 12.8175 8.47545 12.7982C8.47545 12.7788 8.52397 12.7399 8.55302 12.7302C8.55885 12.7229 8.56625 12.717 8.57467 12.713C8.5831 12.7089 8.59232 12.7069 8.60166 12.7069C8.62496 12.7069 8.7161 12.6972 8.74144 12.6933C8.76474 12.6894 8.78419 12.7029 8.77049 12.7224C8.76473 12.7359 8.72198 12.7359 8.72198 12.7359ZM8.856 12.1364C8.856 12.1364 8.82682 12.1985 8.79392 12.1985C8.76089 12.1946 8.76089 12.1849 8.76089 12.1752C8.76089 12.1616 8.79392 12.1267 8.78995 12.1169C8.78035 12.1169 8.75693 12.1169 8.76089 12.0936C8.76089 12.0742 8.79392 12.0509 8.82298 12.0552C8.84493 12.0372 8.87227 12.027 8.90067 12.0262C8.9337 12.0262 8.96275 12.0358 8.96275 12.0552C8.96275 12.0747 8.92435 12.1173 8.91027 12.1272C8.89478 12.1427 8.87533 12.1528 8.856 12.1368V12.1364ZM8.41325 13.2839C8.41325 13.2839 8.37485 13.2879 8.37485 13.3072C8.37485 13.3169 8.38445 13.3169 8.39814 13.3112C8.40603 13.3107 8.41385 13.3094 8.42144 13.3072C8.42528 13.3112 8.42528 13.3305 8.45446 13.3305C8.47843 13.3273 8.50152 13.3194 8.52243 13.3072C8.54573 13.2976 8.56518 13.2878 8.56518 13.2688C8.55545 13.2358 8.536 13.2202 8.50694 13.2202C8.49205 13.2192 8.47721 13.2226 8.46419 13.2299C8.46419 13.2299 8.45446 13.2104 8.42144 13.2299C8.38841 13.2494 8.39225 13.2494 8.40198 13.2591C8.41939 13.2746 8.41363 13.2847 8.41363 13.2847L8.41325 13.2839ZM8.19385 13.4859C8.19385 13.4762 8.24237 13.4567 8.25593 13.4626C8.2695 13.4664 8.30829 13.5402 8.30829 13.548C8.30829 13.5577 8.25977 13.581 8.24032 13.581C8.22086 13.581 8.18797 13.548 8.18797 13.5426C8.18797 13.5388 8.21126 13.533 8.21126 13.529C8.21702 13.5194 8.19385 13.496 8.19385 13.4863V13.4859ZM8.04025 13.2024C8.04998 13.1985 8.04998 13.1888 8.06355 13.1791C8.0678 13.1763 8.07264 13.1744 8.0777 13.1738C8.08275 13.1731 8.0879 13.1736 8.09273 13.1752C8.09616 13.1691 8.1009 13.1639 8.10661 13.1598C8.11232 13.1558 8.11886 13.153 8.12576 13.1518C8.14905 13.148 8.16851 13.1518 8.16416 13.1615C8.16416 13.1907 8.18361 13.2101 8.18361 13.2334C8.18361 13.2566 8.17005 13.2858 8.12153 13.3053C8.07302 13.3189 8.00697 13.3189 7.99725 13.315C7.98752 13.3112 7.97779 13.2723 7.98752 13.2528C7.99725 13.2334 8.02438 13.2121 8.04 13.2024H8.04025Z" fill="#82764F"/>
<path fill-rule="evenodd" clip-rule="evenodd" d="M8.10823 13.21C8.10823 13.21 8.0752 13.2295 8.0752 13.2392C8.07227 13.2486 8.07097 13.2584 8.07136 13.2683C8.07136 13.274 8.11412 13.2644 8.11988 13.2585C8.1218 13.2547 8.10823 13.2201 8.10823 13.21Z" fill="#6E6342"/>
<path fill-rule="evenodd" clip-rule="evenodd" d="M7.81129 13.1169C7.83062 13.1209 7.86364 13.1169 7.88886 13.1266C7.90832 13.1364 7.92188 13.1558 7.90243 13.1791C7.88297 13.2024 7.86403 13.2374 7.82089 13.2315C7.77238 13.2276 7.72579 13.2024 7.72579 13.1829C7.72497 13.1706 7.72661 13.1583 7.73061 13.1466C7.73461 13.135 7.74089 13.1242 7.74909 13.115C7.76854 13.0995 7.77814 13.1092 7.81116 13.1169H7.81129Z" fill="#585136"/>
<path fill-rule="evenodd" clip-rule="evenodd" d="M7.79186 13.1421C7.79186 13.1421 7.72978 13.1906 7.71416 13.214C7.6947 13.2373 7.5996 13.3576 7.57054 13.3829C7.58019 13.3658 7.59119 13.3496 7.60344 13.3343C7.56504 13.3589 7.53625 13.3959 7.5219 13.4392C7.49861 13.5111 7.65208 13.5499 7.75294 13.5791C7.85381 13.6083 7.89285 13.6175 7.89285 13.6175C7.85571 13.5617 7.82383 13.5025 7.79762 13.4408C7.75922 13.3496 7.73938 13.3399 7.76459 13.2971C7.78405 13.2543 7.81323 13.2253 7.81323 13.1923C7.80158 13.1615 7.79186 13.1421 7.79186 13.1421Z" fill="#574F35"/>
<path fill-rule="evenodd" clip-rule="evenodd" d="M5.57838 13.2976C5.59251 13.3002 5.607 13.3002 5.62113 13.2976C5.65019 13.2937 5.95317 13.1824 6.26971 13.2024C6.50668 13.2167 6.74155 13.2553 6.97064 13.3176C7.36872 13.4224 7.86382 13.6302 8.18421 13.7487C8.26958 13.7816 8.35317 13.84 8.41461 13.8631C8.65934 13.9584 8.66894 13.9584 8.81269 13.9836C8.98165 14.0069 9.15445 13.9506 9.33505 13.9118C9.55637 13.8631 9.93499 13.8398 10.267 13.7913C10.3744 13.7765 10.4803 13.7524 10.5836 13.7195C10.5836 13.7195 10.3195 13.9836 9.68641 14.0787C9.43052 14.1176 9.17047 14.1208 8.91368 14.0884C8.71169 14.069 8.57781 14.0398 8.47681 14.0107C8.36225 13.9777 8.12725 13.8903 7.83797 13.8187C7.63598 13.7662 7.4107 13.7275 7.15253 13.679C6.5156 13.5623 5.8244 13.4285 5.57812 13.2984L5.57838 13.2976Z" fill="#252211"/>
<path fill-rule="evenodd" clip-rule="evenodd" d="M4.86575 12.0932C4.71215 12.2232 4.54921 12.3475 4.3901 12.4679L3.91049 12.8364C3.74741 12.9567 3.58818 13.081 3.42498 13.2014C3.26178 13.3219 3.09884 13.4363 2.92578 13.547C3.07938 13.417 3.24233 13.2965 3.4054 13.1781C3.56847 13.0597 3.73756 12.9436 3.89487 12.8236L4.37449 12.4545C4.53948 12.3342 4.69871 12.2099 4.86575 12.0935V12.0932ZM4.01724 13.4524C4.01724 13.4524 4.19004 13.3087 4.40559 13.1068C4.67349 12.8565 5.00169 12.536 5.10652 12.4778L4.01711 13.4526L4.01724 13.4524Z" fill="#CFB66C"/>
<path fill-rule="evenodd" clip-rule="evenodd" d="M4.01465 13.4559C4.10015 13.3705 4.19142 13.2871 4.28268 13.2054L4.42246 13.0851C4.46521 13.0467 4.51385 13.0036 4.55647 12.9608C4.64185 12.8754 4.72543 12.784 4.81081 12.6968C4.85312 12.6529 4.89787 12.6114 4.94482 12.5725C4.9683 12.5517 4.99437 12.534 5.02239 12.52C5.04582 12.5064 5.07103 12.4816 5.10393 12.4772C5.0846 12.5064 5.0613 12.52 5.04185 12.5452C5.01855 12.5647 4.9991 12.588 4.97977 12.6073C4.93702 12.65 4.8885 12.6888 4.84575 12.7277C4.75449 12.8054 4.65938 12.8813 4.56812 12.9626C4.47686 13.0439 4.39148 13.1316 4.30009 13.2131C4.20114 13.2967 4.10988 13.3782 4.01465 13.4563V13.4559ZM5.17586 12.6792C5.17586 12.6792 4.5429 13.2987 4.41273 13.3996L5.17586 12.6792Z" fill="#CFB66C"/>
<path fill-rule="evenodd" clip-rule="evenodd" d="M5.17134 12.6826C5.1144 12.7485 5.05335 12.8108 4.98856 12.869L4.79656 13.0515C4.73448 13.1136 4.67611 13.1758 4.61019 13.2379C4.54222 13.2961 4.48014 13.3531 4.4082 13.4068L4.59457 13.2243C4.65678 13.1622 4.72475 13.1099 4.7908 13.0477L4.97716 12.8651C5.04116 12.8011 5.10337 12.7389 5.17134 12.6826ZM5.2004 13.0185C5.14205 13.1813 5.0733 13.3402 4.99457 13.4943C4.8315 13.8205 4.58689 14.2282 4.48001 14.4361L5.2004 13.0185Z" fill="#CFB66C"/>
<path fill-rule="evenodd" clip-rule="evenodd" d="M5.20088 13.0118C5.20088 13.0836 5.18143 13.1458 5.15813 13.2079C5.13542 13.27 5.10953 13.3309 5.08056 13.3904C5.05138 13.4486 5.01836 13.5108 4.98533 13.5672C4.95231 13.6235 4.91352 13.6816 4.88434 13.74L4.68824 14.0856C4.62028 14.2008 4.55423 14.3166 4.48242 14.4273C4.53093 14.303 4.59698 14.1865 4.65919 14.072C4.72716 13.9568 4.78924 13.8416 4.85119 13.7224C4.88144 13.663 4.90865 13.6022 4.93272 13.54C4.96178 13.4778 4.99084 13.4196 5.01426 13.3633C5.04332 13.3012 5.06661 13.2428 5.0958 13.1866C5.12869 13.1263 5.15596 13.0681 5.20063 13.0118H5.20088Z" fill="#CFB66C"/>
<path fill-rule="evenodd" clip-rule="evenodd" d="M5.90071 14.6064C5.90071 14.6064 5.70871 14.8608 5.72791 15.1831C5.78026 15.0143 5.84631 14.7559 5.90071 14.6064ZM6.08324 14.8614C6.08324 14.8614 6.01527 15.5526 5.95895 15.8925C6.03857 15.4996 6.05406 15.5326 6.08324 14.8614ZM7.35506 15.9333C7.35506 15.9333 7.0677 16.7781 7.06181 17.0128C7.12402 16.7714 7.24434 16.2782 7.35506 15.9326V15.9333Z" fill="#DEC270"/>
<path fill-rule="evenodd" clip-rule="evenodd" d="M8.02344 14.5577C8.02344 14.5577 8.48949 15.3266 8.83906 15.9828C8.74447 15.6526 8.52687 15.0469 8.02344 14.5577Z" fill="#CBAF59"/>
<path fill-rule="evenodd" clip-rule="evenodd" d="M9.28027 15.6849C9.53615 16.1372 9.7669 16.6033 9.97147 17.081C9.93268 16.7509 9.82772 16.1859 9.28027 15.6849Z" fill="#E3C677"/>
<path fill-rule="evenodd" clip-rule="evenodd" d="M12.9557 16.8205C13.0333 16.772 13.1868 16.5078 13.3208 16.4419C13.4547 16.3739 13.5557 16.3604 13.6761 16.2263C13.7964 16.0864 13.8297 16.0011 14.0935 15.8905C14.4626 15.7311 14.2087 15.5253 14.2087 15.5253C14.2494 15.4854 14.2928 15.4484 14.3388 15.4147C14.434 15.3429 14.5446 15.2555 14.535 15.102C14.5214 14.8438 14.4729 14.469 14.2612 14.2516C14.467 14.2088 14.8611 14.1797 15.106 14.1177C15.3894 14.0457 15.5196 13.9447 15.5196 13.9447C15.5196 13.9447 15.3565 13.6671 15.6206 13.3876C15.8846 13.108 16.1002 12.941 16.2594 12.6283C16.0769 12.605 15.7986 12.5079 15.0885 12.7778C15.1268 12.7958 15.1638 12.8165 15.1992 12.8398C15.1992 12.8398 14.7623 12.9603 14.6031 13.0943C14.3253 13.3292 14.2904 13.5214 13.9895 13.6652C13.6885 13.8089 13.3856 13.77 13.1352 13.8865C12.8848 14.003 12.8478 14.102 12.7564 14.1448C12.7759 14.1681 12.7526 14.2069 12.7895 14.2399C12.7662 14.2729 12.6302 14.4942 12.4924 14.4942C12.5059 14.5467 12.6224 14.5855 12.6224 14.5855C12.6224 14.5855 12.537 14.6477 12.3196 14.6632C12.4302 14.7784 12.5351 14.904 12.8244 15.0865C12.8011 15.135 12.704 15.2069 12.7429 15.2982C12.7856 15.3895 12.8965 15.5138 13.339 15.6148C13.1137 15.6244 12.8497 15.6768 12.4942 15.6283C12.1388 15.5856 12.0806 15.5604 11.8612 15.6148C11.8845 15.638 11.9466 15.638 12.001 15.7001C11.9427 15.704 11.5777 15.6574 11.4534 15.8206C11.3233 15.9894 11.267 16.2672 11.2768 16.4535C11.2088 16.4866 11.1427 16.5448 11.1758 16.6652C11.2088 16.7857 11.3816 16.8245 11.4923 16.9001C11.6029 16.9817 11.6126 17.0107 11.7176 16.9914C11.8282 16.9681 11.9913 16.8575 12.0865 16.8575C12.1817 16.8575 12.2496 16.9293 12.2496 16.9293C12.2496 16.9293 12.5079 16.805 12.5331 16.8283C12.5564 16.8516 12.5369 17.0011 12.5621 17.0244C12.5877 17.042 12.8787 16.8692 12.9564 16.8205H12.9557Z" fill="#ECD592"/>
<path fill-rule="evenodd" clip-rule="evenodd" d="M18.5962 9.04812C17.3827 5.91417 14.3826 5.33356 14.3826 5.33356H5.82337L5.85639 8.52575H7.56097V15.654H5.82324V18.8404H14.1457C16.1514 18.8404 17.7592 16.8248 17.7592 16.8248C20.334 13.1705 18.5961 9.04812 18.5961 9.04812H18.5962ZM14.1903 14.6772C14.1903 14.6772 13.5375 15.619 12.8273 15.619H11.4065L11.3728 8.53356H13.1962C13.1962 8.53356 14.041 8.7102 14.6312 10.382C14.6312 10.382 15.4136 12.7756 14.1903 14.6772Z" fill="white" fill-opacity="0.8"/>
</g>
<defs>
<clipPath id="clip0">
<rect width="24" height="24" fill="white"/>
</clipPath>
</defs>
</svg>
