<svg width="24" height="24" viewBox="0 0 24 24" fill="none" xmlns="http://www.w3.org/2000/svg">
<g clip-path="url(#clip0)">
<path d="M18.126 7.30537C17.6885 7.01881 17.126 7.01881 16.626 7.30537L13.126 9.66955L10.751 11.174L7.31348 13.5382C6.87598 13.8248 6.31348 13.8248 5.81348 13.5382L3.12598 11.6755C2.68848 11.389 2.37598 10.8158 2.37598 10.171V6.58896C2.37598 6.01582 2.62598 5.44269 3.12598 5.08448L5.81348 3.29343C6.25098 3.00687 6.81348 3.00687 7.31348 3.29343L10.001 5.15612C10.4385 5.44269 10.751 6.01582 10.751 6.6606V9.02478L13.126 7.44866V5.01284C13.126 4.4397 12.876 3.86657 12.376 3.50836L7.37598 0.141195C6.93848 -0.145372 6.37598 -0.145372 5.87598 0.141195L0.750977 3.58C0.250977 3.86657 0.000976562 4.4397 0.000976562 5.01284V11.7472C0.000976562 12.3203 0.250977 12.8934 0.750977 13.2516L5.81348 16.6188C6.25098 16.9054 6.81348 16.9054 7.31348 16.6188L10.751 14.3263L13.126 12.7502L16.5635 10.4576C17.001 10.171 17.5635 10.171 18.0635 10.4576L20.751 12.2487C21.1885 12.5352 21.501 13.1084 21.501 13.7531V17.3352C21.501 17.9084 21.251 18.4815 20.751 18.8397L18.126 20.6307C17.6885 20.9173 17.126 20.9173 16.626 20.6307L13.9385 18.8397C13.501 18.5531 13.1885 17.98 13.1885 17.3352V15.0427L10.8135 16.6188V18.983C10.8135 19.5561 11.0635 20.1293 11.5635 20.4875L16.626 23.8546C17.0635 24.1412 17.626 24.1412 18.126 23.8546L23.1885 20.4875C23.626 20.2009 23.9385 19.6278 23.9385 18.983V12.177C23.9385 11.6039 23.6885 11.0307 23.1885 10.6725L18.126 7.30537Z" fill="#8247E5"/>
</g>
<defs>
<clipPath id="clip0">
<rect width="24" height="24" fill="white"/>
</clipPath>
</defs>
</svg>
