<svg width="24" height="24" viewBox="0 0 24 24" fill="none" xmlns="http://www.w3.org/2000/svg">
<g clip-path="url(#clip0)">
<path d="M3.89768 17.3566C4.04251 17.2117 4.24166 17.1273 4.45287 17.1273H23.607C23.957 17.1273 24.132 17.5497 23.8846 17.7971L20.1008 21.5809C19.956 21.7257 19.7569 21.8102 19.5457 21.8102H0.391519C0.0415063 21.8102 -0.1335 21.3878 0.113923 21.1403L3.89768 17.3566Z" fill="url(#paint0_linear)"/>
<path d="M3.89768 3.22932C4.04855 3.08449 4.24769 3 4.45287 3H23.607C23.957 3 24.132 3.42243 23.8846 3.66985L20.1008 7.45361C19.956 7.59844 19.7569 7.68293 19.5457 7.68293H0.391519C0.0415063 7.68293 -0.1335 7.2605 0.113923 7.01308L3.89768 3.22932Z" fill="url(#paint1_linear)"/>
<path d="M20.1008 10.2476C19.956 10.1028 19.7569 10.0183 19.5457 10.0183H0.391519C0.0415063 10.0183 -0.1335 10.4407 0.113923 10.6882L3.89768 14.4719C4.04251 14.6167 4.24166 14.7012 4.45287 14.7012H23.607C23.957 14.7012 24.132 14.2788 23.8846 14.0314L20.1008 10.2476Z" fill="url(#paint2_linear)"/>
</g>
<defs>
<linearGradient id="paint0_linear" x1="21.7772" y1="0.73971" x2="8.52104" y2="26.1306" gradientUnits="userSpaceOnUse">
<stop stop-color="#00FFA3"/>
<stop offset="1" stop-color="#DC1FFF"/>
</linearGradient>
<linearGradient id="paint1_linear" x1="15.9809" y1="-2.28648" x2="2.72471" y2="23.1044" gradientUnits="userSpaceOnUse">
<stop stop-color="#00FFA3"/>
<stop offset="1" stop-color="#DC1FFF"/>
</linearGradient>
<linearGradient id="paint2_linear" x1="18.8606" y1="-0.783058" x2="5.60446" y2="24.6079" gradientUnits="userSpaceOnUse">
<stop stop-color="#00FFA3"/>
<stop offset="1" stop-color="#DC1FFF"/>
</linearGradient>
<clipPath id="clip0">
<rect width="24" height="18.8102" fill="white" transform="translate(0 3)"/>
</clipPath>
</defs>
</svg>
